<svg viewBox="0 0 272.2 100" version="1.1" xmlns:xlink="http://www.w3.org/1999/xlink" xmlns="http://www.w3.org/2000/svg" id="Layer_1">
  
  <defs>
    <style>
      .st0 {
        fill: #72be44;
      }

      .st1 {
        fill: url(#linear-gradient6);
      }

      .st1, .st2, .st3, .st4, .st5, .st6, .st7, .st8 {
        opacity: .3;
      }

      .st2 {
        fill: url(#linear-gradient3);
      }

      .st3 {
        fill: url(#linear-gradient7);
      }

      .st4 {
        fill: url(#linear-gradient4);
      }

      .st5 {
        fill: url(#linear-gradient5);
      }

      .st6 {
        fill: url(#linear-gradient1);
      }

      .st7 {
        fill: url(#linear-gradient2);
      }

      .st9 {
        fill: #f78e20;
      }

      .st8 {
        fill: url(#linear-gradient);
      }

      .st10 {
        fill: #fdfeff;
      }

      .st11 {
        fill: #fff;
      }
    </style>
    <linearGradient gradientUnits="userSpaceOnUse" gradientTransform="translate(221.2 5.3) rotate(-177.5) scale(1 -1)" y2="34.9" x2="122.1" y1="35.3" x1="123" id="linear-gradient">
      <stop stop-color="#000" offset="0"></stop>
      <stop stop-color="#040404" offset="0"></stop>
      <stop stop-color="#101010" offset=".2"></stop>
      <stop stop-color="#242424" offset=".3"></stop>
      <stop stop-color="#404040" offset=".4"></stop>
      <stop stop-color="#646464" offset=".5"></stop>
      <stop stop-color="#7e7e7e" offset=".5"></stop>
      <stop stop-color="#626262" offset=".6"></stop>
      <stop stop-color="#3f3f3f" offset=".6"></stop>
      <stop stop-color="#232323" offset=".7"></stop>
      <stop stop-color="#0f0f0f" offset=".8"></stop>
      <stop stop-color="#030303" offset=".9"></stop>
      <stop stop-color="#000" offset="1"></stop>
    </linearGradient>
    <linearGradient xlink:href="#linear-gradient" gradientTransform="translate(168 -31.2) rotate(165.1) scale(1 -1.1) skewX(-8)" y2="74.7" x2="108" y1="75.1" x1="108.9" id="linear-gradient1"></linearGradient>
    <linearGradient xlink:href="#linear-gradient" gradientTransform="translate(303.3 208.1) rotate(-84.1) scale(1 -1.1) skewX(-8)" y2="176.5" x2="139.9" y1="176.8" x1="140.6" id="linear-gradient2"></linearGradient>
    <linearGradient xlink:href="#linear-gradient" gradientTransform="translate(168 -31.2) rotate(165.1) scale(1 -1.1) skewX(-8)" y2="59" x2="114.6" y1="59.3" x1="115.5" id="linear-gradient3"></linearGradient>
    <linearGradient xlink:href="#linear-gradient" gradientTransform="translate(168 -31.2) rotate(165.1) scale(1 -1.1) skewX(-8)" y2="43.8" x2="121.3" y1="44.2" x1="122.2" id="linear-gradient4"></linearGradient>
    <linearGradient xlink:href="#linear-gradient" gradientTransform="translate(168 -31.2) rotate(165.1) scale(1 -1.1) skewX(-8)" y2="34" x2="107.2" y1="34.4" x1="108" id="linear-gradient5"></linearGradient>
    <linearGradient xlink:href="#linear-gradient" gradientTransform="translate(220.4 4.2) rotate(-178.6) scale(1 -1)" y2="20.3" x2="127.5" y1="20.7" x1="128.4" id="linear-gradient6"></linearGradient>
    <linearGradient xlink:href="#linear-gradient" gradientTransform="translate(220.4 4.2) rotate(-178.6) scale(1 -1)" y2="7.9" x2="133.2" y1="8.3" x1="134.1" id="linear-gradient7"></linearGradient>
  </defs>
  <g>
    <path d="M89.8,98.8c-1.2,0-2.2-.6-2.5-.8l-.2-.2-.2-.2c-.4-.5-10.9-12-11.3-12.5-.4-.4-.6-.9-.7-1.4-.3-.1-.6-.2-.6-.3l-.4-.2-.3-.3c-.4-.5-9.9-11.2-10.5-11.9-.4-.5-.7-1-.8-1.5-.7-.2-1.1-.5-1.3-.7h-.1c0,0,0-.2,0-.2-1-1.1-9.4-10.7-10.1-11.6-1.2-1.5-.9-3.3-.5-4.1h0c0-.1,0-.2,0-.2,1.6-2.5,6.7-10.8,7.4-11.6.3-.4.7-.8,1.1-1,0-.2.2-.4.2-.6h0c0-.1,0-.2,0-.2.3-.4,6.2-10.2,7.1-11.7,1.4-2.3,3.3-2.7,3.7-2.7h0s0,0,0,0c1.5-.2,3.5-.4,5.1-.5-.7-1.8-1.7-4.2-2-5-.7-2-.2-3.6,0-3.9v-.2c0,0,.2-.2.2-.2,1.6-2.7,7-11.4,7.8-12.4.7-.9,1.9-1.4,3.5-1.4s1.8.2,1.9.2h.1s.1,0,.1,0c.4.1,10.5,3.4,11.8,3.9.9.3,1.5.7,1.9,1.2.3,0,.5,0,.8,0,.5,0,.9,0,.9,0h.2s.2,0,.2,0c1.2.4,11.5,3.8,12.1,4.1.4.2.8.4,1.1.6.2,0,.3,0,.5,0,.6,0,1.1,0,1.2.1h0s0,0,0,0c0,0,9.4,3,10.4,3.3,1.7.5,2.6,1.8,2.8,2.1h0s0,0,0,0c.5.9,5.3,8.8,5.7,9.6.3.5.4.9.4,1.4.4.3.6.6.7.7h0c0,0,0,.2,0,.2,1.4,2.3,5.8,9.8,6.2,10.7.2.5.3,1,.4,1.4,0,0,0,0,0,0l.2.2.2.3c2,3.4,5.8,9.9,6.4,10.8,1,1.6.7,3.4.2,4.5v.2c0,0-.2.2-.2.2-8.9,11.2-9.3,11.6-9.4,11.7-.6.6-1.5.9-2.8.9h0c-.2,0-.4,0-.4,0h-.2s-4.9-1-4.9-1c-2.4,2.9-2.6,3.1-2.7,3.2,0,0,0,0-.1,0,0,.3-.2.6-.4.8-.7,1-6.5,8.6-7.2,9.5-.9,1.1-2,1.7-2.3,1.8-7.9,3.8-28.7,13.8-29.4,14.2-.5.2-1,.4-1.5.4Z"></path>
    <path d="M149.6,55.9s.6-1.2,0-2.4c-.7-1.1-6.4-10.9-6.4-10.9,0,0-.5-.5-1.2-.3-.7.2-.1-.2-.1-.2l.3-.2s.6-.5.2-1.4c-.4-.9-6.1-10.5-6.1-10.5,0,0-.7-.9-1.4-.8s0-.3,0-.3h.1c0,0,.5-.5,0-1.3s-5.7-9.6-5.7-9.6c0,0-.6-.9-1.7-1.2s-10.4-3.3-10.4-3.3c0,0-1.3-.3-2.1.3s-.3-.3-.3-.3c0,0,0-.6-.6-.8s-12.1-4.1-12.1-4.1c0,0-1.6-.3-2.2.5s-.5-.7-.5-.7c0,0,0-.7-1.3-1.2s-11.8-3.9-11.8-3.9c0,0-2.6-.5-3.3.4s-7.6,12.2-7.6,12.2c0,0-.4,1,.1,2.4s2.9,7.3,2.9,7.3c0,0,0,.2-.1.2s-7.7.8-7.7.8c0,0-1.2.2-2.2,1.7-1,1.6-7.1,11.7-7.1,11.7,0,0-.4.9-.2,1.3,0,0-.8-.2-1.4.7-.7.8-7.2,11.4-7.2,11.4,0,0-.5,1,.2,1.9.7.9,10,11.5,10,11.5,0,0,.5.4,1.8.4,0,0-.2,1.3.5,2.1.6.7,10.5,11.9,10.5,11.9,0,0,.8.4,1.7.3,0,0-.2,1.4.3,1.9.5.5,11.3,12.5,11.3,12.5,0,0,1.1.7,1.9.3s29.5-14.2,29.5-14.2c0,0,.8-.4,1.5-1.2s7.1-9.4,7.1-9.4c0,0,.4-.5-.4-1s.3-.3.3-.3c0,0,.6.3.9,0s3.3-4,3.3-4l6.1,1.3s1.3,0,1.7-.3,9.2-11.5,9.2-11.5Z" id="base"></path>
    <g id="reflets">
      <path d="M97.7,34.9c1.1,2.8,1.8,5.1,1.5,5.2-.2,0-1.3-2.1-2.4-4.8-1.1-2.8-1.8-5.1-1.5-5.2.2,0,1.3,2.1,2.4,4.8Z" class="st8"></path>
      <path d="M92.7,77.5c2.4,2.6,4.2,4.8,4,5-.2.2-2.3-1.8-4.7-4.4-2.4-2.6-4.2-4.8-4-5,.2-.2,2.3,1.8,4.7,4.4Z" class="st6"></path>
      <path d="M114.3,68.8c-2.3.9-4.3,1.6-4.4,1.4,0-.2,1.8-1.1,4.1-2,2.3-.9,4.3-1.6,4.4-1.4,0,.2-1.8,1.1-4.1,2Z" class="st7"></path>
      <path d="M79.3,62.4c2.4,2.6,4.2,4.8,4,5-.2.2-2.3-1.8-4.7-4.4-2.4-2.6-4.2-4.8-4-5,.2-.2,2.3,1.8,4.7,4.4Z" class="st2"></path>
      <path d="M66,47.9c2.4,2.6,4.2,4.8,4,5-.2.2-2.3-1.8-4.7-4.4-2.4-2.6-4.2-4.8-4-5,.2-.2,2.3,1.8,4.7,4.4Z" class="st4"></path>
      <path d="M75.8,33.6c2.4,2.6,4.2,4.8,4,5-.2.2-2.3-1.8-4.7-4.4-2.4-2.6-4.2-4.8-4-5,.2-.2,2.3,1.8,4.7,4.4Z" class="st5"></path>
      <path d="M92.4,21.3c1.1,2.8,1.9,5.1,1.6,5.2-.2.1-1.4-2-2.5-4.8-1.1-2.8-1.9-5.1-1.6-5.2.2-.1,1.4,2,2.5,4.8Z" class="st1"></path>
      <path d="M87,8.7c1.1,2.8,1.9,5.1,1.6,5.2-.2.1-1.4-2-2.5-4.8-1.1-2.8-1.9-5.1-1.6-5.2.2-.1,1.4,2,2.5,4.8Z" class="st3"></path>
    </g>
    <g id="cases">
      <g>
        <path d="M128.9,18.5l4.3,7s.7,1.1-.8.7c-1.4-.4-9.4-2.7-9.4-2.7,0,0-.9-.3-1.5-1.1-.6-.8-4.4-7.8-4.4-7.8,0,0-.5-.8.7-.5,1.2.3,9.5,3,9.5,3,0,0,1.1.4,1.7,1.4Z" class="st10"></path>
        <path d="M115.1,14.3l3.3,6.9s.7,1.1-.8.7c-1.4-.4-9.6-2.8-9.6-2.8,0,0-.9-.3-1.5-1.1-.6-.8-3.6-7.8-3.6-7.8,0,0-.5-.8.7-.5s9.7,3.1,9.7,3.1c0,0,1.1.3,1.7,1.4Z" class="st10"></path>
        <path d="M136.1,30.6l4.4,7.8s.7,1.2-.8.8c-1.5-.4-9.8-2.6-9.8-2.6,0,0-.9-.3-1.6-1.2-.7-.9-4.7-8.8-4.7-8.8,0,0-.5-.9.7-.6,1.3.4,9.9,3,9.9,3,0,0,1.1.3,1.8,1.5Z" class="st10"></path>
        <path d="M142.9,43.3l4.9,8.7s.7,1.2-.8.8c-1.5-.4-9.8-2.5-9.8-2.5,0,0-.9-.3-1.6-1.2-.7-.9-4.9-9.3-4.9-9.3,0,0-.5-.9.7-.6,1.3.4,9.6,2.5,9.6,2.5,0,0,1.2.4,1.8,1.5Z" class="st10"></path>
        <path d="M128,39.2l4.3,9s.7,1.2-.8.8c-1.5-.4-11-2.7-11-2.7,0,0-.9-.3-1.6-1.2-.7-.9-4.5-9.8-4.5-9.8,0,0-.5-.9.7-.6,1.3.4,11.1,2.8,11.1,2.8,0,0,1.2.3,1.8,1.5Z" class="st10"></path>
        <path d="M121,26l4.3,8.3s.7,1.2-.8.8c-1.5-.4-10.5-2.6-10.5-2.6,0,0-.9-.3-1.6-1.2-.7-.9-4.3-9.4-4.3-9.4,0,0-.5-.9.7-.6,1.3.4,10.4,3.1,10.4,3.1,0,0,1.2.3,1.8,1.5Z" class="st10"></path>
        <path d="M111.1,34.4l4.2,9.1s.7,1.2-.8.8c-1.5-.4-12.5-3.2-12.5-3.2,0,0-.9-.3-1.6-1.2-.7-.9-3.9-10-3.9-10,0,0-.3-.9.7-.6,1.3.3,12,3.5,12,3.5,0,0,1.2.2,1.8,1.5Z" class="st10"></path>
        <path d="M105.3,21.3l3.5,8s.7,1.2-.8.8c-1.5-.4-11.1-3.2-11.1-3.2,0,0-.9-.3-1.6-1.2-.7-.9-3.9-9-3.9-9,0,0-.3-.9.7-.6,1.3.3,11.3,3.6,11.3,3.6,0,0,1.2.2,1.8,1.5Z" class="st10"></path>
        <path d="M99.4,9.2l3,6.9s.7,1.2-.8.8c-1.5-.4-10.5-3.2-10.5-3.2,0,0-.9-.3-1.6-1.2-.7-.9-3.3-7.8-3.3-7.8,0,0-.3-.9.7-.6,1.3.3,10.7,3.5,10.7,3.5,0,0,1.2.2,1.8,1.5Z" class="st10"></path>
      </g>
      <g>
        <path d="M69.9,30s-.9-.8-1.5,0c-.5.7-6.3,10.2-6.3,10.2,0,0-.6,1,0,1.7s8.7,10,8.7,10c0,0,.6.5,1.1,0,.5-.6,7.3-10.3,7.3-10.3,0,0,.5-.9-.2-1.6-.7-.7-9.1-10-9.1-10Z" class="st9"></path>
        <path d="M60.5,44.1s-.9-.8-1.5,0c-.5.7-6,9.9-6,9.9,0,0-.6,1,0,1.7s8.8,10.2,8.8,10.2c0,0,.6.5,1.1,0,.5-.6,6.8-10.2,6.8-10.2,0,0,.5-.9-.2-1.6-.7-.7-9-9.9-9-9.9Z" class="st9"></path>
        <path d="M73.6,58.6s-.8-.9-1.5,0c-.5.7-6.4,9.4-6.4,9.4,0,0-.6,1,0,1.7.6.7,9.1,10.3,9.1,10.3,0,0,.5.5,1.1,0,.5-.5,6.9-9.4,6.9-9.4,0,0,.5-.9-.1-1.6-.6-.7-9-10.3-9-10.3Z" class="st9"></path>
        <path d="M86.3,72.7s-.8-.9-1.5,0c-.5.7-6.9,9.2-6.9,9.2,0,0-.6,1,0,1.7.6.7,9.7,10.8,9.7,10.8,0,0,.5.5,1.1,0,.5-.5,7.4-9.2,7.4-9.2,0,0,.5-.9-.1-1.6-.6-.7-9.7-10.8-9.7-10.8Z" class="st9"></path>
        <path d="M96.9,59.5s-.8-.9-1.5,0c-.5.7-7.4,9.8-7.4,9.8,0,0-.6,1,0,1.7.6.7,10,10.8,10,10.8,0,0,.5.5,1.1,0,.5-.5,7.9-9.9,7.9-9.9,0,0,.5-.9-.1-1.6-.6-.7-9.9-10.6-9.9-10.6Z" class="st9"></path>
        <path d="M83.4,4.9s-.4-.8-.9-.1c-.3.5-6.9,11.1-6.9,11.1,0,0-.5,1-.1,2.1s3.3,7.8,3.3,7.8c0,0,.4.6,1-.2s6.9-11.2,6.9-11.2c0,0,.4-.7,0-1.6s-3.4-7.9-3.4-7.9Z" class="st9"></path>
        <path d="M88.6,16.8s-.4-.8-.9-.1c-.3.5-7.5,11.4-7.5,11.4,0,0-.5,1-.1,2.1s3.5,8.8,3.5,8.8c0,0,.4.6,1-.2s7.5-11.1,7.5-11.1c0,0,.4-.7,0-1.6s-3.6-9.3-3.6-9.3Z" class="st9"></path>
        <path d="M94.2,30.3s-.4-.8-.9-.1c-.3.5-7.7,11.4-7.7,11.4,0,0-.5,1-.1,2.1s4.1,9.7,4.1,9.7c0,0,.4.6,1-.2s7.6-11.1,7.6-11.1c0,0,.4-.7,0-1.6s-4.1-10.2-4.1-10.2Z" class="st9"></path>
        <path d="M91.5,58.1l-6,8.1s-.8,1-1.7,0c-.8-.9-9-10.1-9-10.1,0,0-.8-.8,0-1.9.8-1.1,6.6-9.7,6.6-9.7,0,0,.9-1.1,1.7-.3.7.7,1.9,1.8,1.9,1.8,0,0,.4.5.7,1.3s2.9,6.6,2.9,6.6c0,0,.8,2.7,2.9,4.2Z" class="st9"></path>
      </g>
      <g>
        <path d="M115.2,48.1s.7-1-.5-1.3c-.9-.2-12.3-3.1-12.3-3.1,0,0-1.1-.3-1.5.2-.3.4-7.6,11-7.6,11,0,0-1.2,1.6.2,1.9,1.2.3,11.7,2.5,11.7,2.5,0,0,1.2.3,1.7-.3.4-.5,8.2-10.9,8.2-10.9Z" class="st0"></path>
        <path d="M131.8,52.4s.7-.9-.5-1.2c-.9-.2-11.4-2.7-11.4-2.7,0,0-1.1-.3-1.4.2-.3.4-7.9,10.2-7.9,10.2,0,0-1.1,1.5.2,1.8,1.1.3,11,2.4,11,2.4,0,0,1.2.3,1.6-.2.4-.5,8.3-10.5,8.3-10.5Z" class="st0"></path>
        <path d="M147.7,56.1s.7-.9-.5-1.2c-.9-.2-10.6-2.7-10.6-2.7,0,0-1.1-.3-1.4.2-.3.4-7.9,10.3-7.9,10.3,0,0-1.1,1.5.2,1.8,1.1.3,10.2,2.3,10.2,2.3,0,0,1.2.3,1.6-.2.4-.5,8.3-10.4,8.3-10.4Z" class="st0"></path>
        <path d="M117.5,68.2l-6.8,2.9s-.9.4-1.4,1c-.5.6-7.7,9.7-7.7,9.7,0,0-.9,1.2.4.6,1.1-.5,7.7-3.6,7.7-3.6,0,0,.6-.2,1.1-.8.5-.6,7.3-9.3,7.3-9.3,0,0,.7-1.1-.6-.5Z" class="st0"></path>
        <path d="M106.7,82.1l-6.8,2.9s-.9.4-1.4,1c-.5.6-7.1,8.7-7.1,8.7,0,0-.9,1.2.4.6,1.1-.5,7.9-3.8,7.9-3.8,0,0,.6-.2,1.1-.8.5-.6,6.5-8.2,6.5-8.2,0,0,.7-1.1-.6-.5Z" class="st0"></path>
        <path d="M117.3,76.8l-6.8,3.4s-.9.4-1.4,1c-.5.6-5.9,7.8-5.9,7.8,0,0-.9,1.2.4.6,1.1-.5,6.8-3.2,6.8-3.2,0,0,.6-.2,1.1-.8.5-.6,6.4-8.3,6.4-8.3,0,0,.7-1.1-.6-.5Z" class="st0"></path>
        <path d="M126.5,72.5l-5.6,2.8s-.9.4-1.4,1c-.5.6-5.8,7.7-5.8,7.7,0,0-.9,1.2.4.6,1.1-.5,5.7-2.7,5.7-2.7,0,0,.6-.2,1.1-.8.5-.6,6.3-8.1,6.3-8.1,0,0,.7-1.1-.6-.5Z" class="st0"></path>
        <path d="M121.5,72.7s-.6.9-1.6,1.4c-1,.5-6.9,3.3-6.9,3.3,0,0-1.2.5-.3-.6.9-1.1,7.3-9.2,7.3-9.2,0,0,.6-.8,1.2-1.1.6-.3,3.7-1.6,3.7-1.6,0,0,.5-.2,1.2,0s1.2.3,1.2.3c0,0,.3.2.2.3s-5.9,7.2-5.9,7.2Z" class="st0"></path>
        <path d="M129.7,69.7s-.6.7-1.3,1c-.7.3-4.6,2-4.6,2,0,0-1.4.5-.6-.5s5-6.3,5-6.3c0,0,.3-.4.6-.3.3,0,3.2.7,3.2.7,0,0,.3.1.2.3-.1.2-2.5,3.2-2.5,3.2Z" class="st0"></path>
      </g>
    </g>
  </g>
  <path d="M206.5,42.6c-.8-1.2-2-1.9-3.3-1.9h-9.4c-1.3,0-2.5.6-3.3,1.5-.8-.9-1.8-1.5-3.1-1.5h-9.6c-1.2,0-2.4.6-3.1,1.6-.8-1-2-1.6-3.2-1.6h-5.1v-2.9c0-1.2-1-2.1-2.1-2.1h-4.4c-1.2,0-2.1,1-2.1,2.1v2.9h-11.5c-1.1,0-2.2.6-3.1,1.5-.8-.9-1.9-1.5-3-1.5h-9.5c-1.2,0-2.3.6-3.1,1.5-.8-.9-1.9-1.5-3.1-1.5h-5.3c0-1.6,0-2.8,0-3,0-1.2-1-2.1-2.1-2.1h-4.4c-1.2,0-2.1,1-2.1,2.1v3h-4c-1.2,0-2.1,1-2.1,2.1v8.2h-.9v-8.2c0-1.2-1-2.1-2.1-2.1h-4.4c-.7,0-1.2.3-1.6.8-.6-.5-1.4-.8-2.3-.8h-9.6c-.6,0-1.2.1-1.7.4v-3.4c0-1.2-1-2.1-2.1-2.1h-4.4c-1.2,0-2.1,1-2.1,2.1,0,.2,0,1.3,0,3h-5.3c-1.3,0-2.4.6-3.2,1.5-.8-.9-1.9-1.5-3-1.5h-9.5c-1.2,0-2.4.6-3.2,1.6-.8-.9-1.9-1.6-3-1.6h-9.5c-1.2,0-2.4.6-3.2,1.5-.8-1-1.9-1.5-3.1-1.5h-9.4c-.9,0-1.8.3-2.5.8-.4-.5-1-.8-1.7-.8H4.4c-2.1,0-4.4,2-4.4,5v3.4c0,.8.2,1.8.7,2.6-.4.4-.6.9-.6,1.5v3.8c0,1.2,1,2.1,2.1,2.1h11.9c.6,0,1.2-.1,1.7-.4v3.5c0,1.2,1,2.1,2.1,2.1h4.4c1.2,0,2.1-1,2.1-2.1,0-.2,0-1.4,0-3.1h5.3c1.2,0,2.3-.6,3.1-1.4.7.9,1.8,1.4,2.9,1.4h7.6c1.2,0,2.1-1,2.1-2.1v-2.9h1.8c.1,2.8,1.9,5,4.2,5h7.6c1.2,0,2.1-1,2.1-2.1v-2.9h1.9c0,1.1.4,2.2,1,3.1.8,1.2,2,1.9,3.3,1.9h9.4c1.3,0,2.4-.6,3.3-1.5.8.9,1.8,1.5,3,1.5h9.8c1.1,0,2.2-.5,2.9-1.4.9,1,2,1.4,3.2,1.4h11.8c.7,0,1.3-.3,1.7-.8.7.5,1.6.8,2.5.8h9.4c1.1,0,2.2-.5,3-1.5.7.9,1.8,1.5,2.9,1.5h7.6c1.2,0,2.1-1,2.1-2.1v-2.9h1.8v2.9c0,1.2,1,2.1,2.1,2.1h11.9c.8,0,1.6-.3,2.3-.7,0,0,0,0,0,.1.4.4.9.6,1.5.6h4.4c1.2,0,2.1-1,2.1-2.1v-8h1c0,2.4,0,7.9,0,8,0,.6.2,1.1.6,1.5.4.4,1,.6,1.5.6h4.5c.7,0,1.2-.3,1.6-.8.6.5,1.4.8,2.2.8h9.8c.6,0,1.2-.1,1.7-.4v3.5c0,1.2,1,2.1,2.1,2.1h4.4c1.2,0,2.1-1,2.1-2.1,0-.2,0-1.4,0-3.1h5.3c2.4,0,4.3-2.1,4.3-4.7v-8.6c0-1.1-.4-2.3-1-3.2ZM25.4,51.1h-1c0-.8,0-1.5,0-2h1v2ZM72.7,51.1h-1v-2h1c0,.8,0,1.5,0,2ZM88.5,50.6v.4h-.9v-2h.9v.3c0,.2,0,.4,0,.6,0,.2,0,.4,0,.6ZM120,51.1h-1c0-.5,0-1.2,0-2h1v2ZM183.1,51.1h-.9v-2h.9v2ZM198.9,51.1h-1c0-.8,0-1.5,0-2h1v2Z"></path>
  <g>
    <path d="M16.2,46.9v-4H4.4c-.8,0-2.2,1-2.2,2.8v3.4c0,1.2,1,3,2,3h7.1c.5,0,.6.1.6.6s-.2.6-.4.6H2.2v3.8h11.9c1.3,0,2.1-1.4,2.1-3.1v-2.8c0-2-1.1-3-2.5-3h-6.6c-.4,0-.5-.3-.5-.6s.2-.6.4-.6h9.3Z" class="st10"></path>
    <path d="M158,46.9v-4h-11.8c-.8,0-2.2,1-2.2,2.8v3.4c0,1.2,1,3,2,3h7.1c.5,0,.6.1.6.6s-.2.6-.4.6h-9.2v3.8h11.9c1.3,0,2.1-1.4,2.1-3.1v-2.8c0-2-1.1-3-2.5-3h-6.6c-.4,0-.5-.3-.5-.6s.2-.6.4-.6h9.3Z" class="st10"></path>
    <path d="M22.3,62.2h-4.4v-16.2c0-1.7,1-3.1,2.5-3.1h9.4c1.2,0,2.1,1.5,2.1,3v8.6c0,1.5-1.1,2.6-2.2,2.6h-6.5v-3.8h3.4c.5,0,1-.4,1-1.2v-3.9c0-.9-.5-1.2-1.1-1.2h-3.2c-.5,0-.9.5-.9,1.1s0,14.3,0,14.3Z" class="st10"></path>
    <path d="M195.7,62.2h-4.4v-16.2c0-1.7,1-3.1,2.5-3.1h9.4c1.2,0,2.1,1.5,2.1,3v8.6c0,1.5-1.1,2.6-2.2,2.6h-6.5v-3.8h3.4c.5,0,1-.4,1-1.2v-3.9c0-.9-.5-1.2-1.1-1.2h-3.2c-.5,0-.9.5-.9,1.1s0,14.3,0,14.3Z" class="st10"></path>
    <path d="M74.9,37.8h4.4v16.1c0,1.7-1,3.1-2.5,3.1h-9.4c-1.2,0-2.1-1.5-2.1-3v-8.6c0-1.5,1.1-2.6,2.2-2.6h6.5v4h-3.4c-.5,0-1,.4-1,1.2v3.9c0,.9.5,1.2,1.1,1.2h3.2c.5,0,.9-.5.9-1.1s0-14.4,0-14.4Z" class="st10"></path>
    <path d="M116.9,37.8h-4.4v16.1c0,1.7,1,3.1,2.5,3.1h9.4c1.2,0,2.1-1.5,2.1-3v-8.6c0-1.5-1.1-2.6-2.2-2.6h-6.5v4h3.4c.5,0,1,.4,1,1.2v3.9c0,.9-.5,1.2-1.1,1.2h-3.2c-.5,0-.9-.5-.9-1.1s0-14.4,0-14.4Z" class="st10"></path>
    <path d="M39,52h8.8v-6c0-1.7-1.2-3.1-2.2-3.1h-9.5c-1.1,0-2.3,1.2-2.3,2.8v8.1c0,1.6.9,3.1,2,3.1h7.6v-3.8h-4.3c-.6,0-.9-.5-.9-1.4v-3.9c0-.7.4-1.1.9-1.1h3.5c.5,0,.9.5.9,1.2h-4.3v4Z" class="st10"></path>
    <path d="M54.7,52h8.8v-6c0-1.7-1.2-3.1-2.2-3.1h-9.5c-1.1,0-2.3,1.2-2.3,2.8v8.1c0,1.6.9,3.1,2,3.1h7.6v-3.8h-4.3c-.6,0-.9-.5-.9-1.4v-3.9c0-.7.4-1.1.9-1.1h3.5c.5,0,.9.5.9,1.2h-4.3v4Z" class="st10"></path>
    <path d="M133.5,52h8.8v-6c0-1.7-1.2-3.1-2.2-3.1h-9.5c-1.1,0-2.3,1.2-2.3,2.8v8.1c0,1.6.9,3.1,2,3.1h7.6v-3.8h-4.3c-.6,0-.9-.5-.9-1.4v-3.9c0-.7.4-1.1.9-1.1h3.5c.5,0,.9.5.9,1.2h-4.3v4Z" class="st10"></path>
    <path d="M187.4,42.9h-9.6c-1.3,0-2.2,1.4-2.2,3v8.2c0,1.6.9,3,2.1,3h9.8c1.3,0,2.1-1.6,2.1-3.2v-7.8c0-1.3-.9-3.1-2.3-3.1ZM185.2,52c0,.7-.4,1.2-1,1.2h-3.4c-.6,0-.8-.8-.8-1.5v-3.7c0-.7.3-1.2.8-1.2h3.5c.7,0,.9.6.9,1v4.1Z" class="st10"></path>
    <path d="M110.8,42.9v14.1h-11.8c-1.7,0-2.3-1.6-2.3-3.6v-10.5h4.4v8.9c0,1.1.5,1.4,1,1.4h4.3v-10.3h4.4Z" class="st10"></path>
    <path d="M171.4,42.9h-7.3v-5h-4.4v19.1s4.4,0,4.4,0v-10.2h4.1c.6,0,1.1.2,1.1,1.1s0,9.1,0,9.1h4.5v-11c0-1.8-1.2-3.1-2.4-3.1Z" class="st10"></path>
    <path d="M90.6,52c0,.7-.4,1.2-1,1.2h-3.4c-.6,0-.8-.8-.8-1.5v-3.7c0-.7.3-1.2.8-1.2h3.5c.7,0,.9.6.9,1v1.5h4.4v-3.4c0-1.3-.9-3.1-2.3-3.1h-9.6c-1.3,0-2.2,1.4-2.2,3v8.2c0,1.6.9,3,2.1,3h9.8c1.3,0,2.1-1.6,2.1-3.2v-3.2h-4.4v1.4Z" class="st10"></path>
  </g>
  <g>
    <g>
      <path d="M137.4,87.3v-1.2h1.1v-1.7h1.5v1.7h1.5v1.2h-1.5v2.8c0,.3,0,.5.1.7,0,.2.3.3.6.3s.2,0,.3,0c.1,0,.2,0,.3,0v1.2c0,0-.2,0-.4.1-.2,0-.4,0-.5,0-.4,0-.7,0-1-.2-.3-.1-.5-.3-.6-.5-.1-.2-.2-.4-.3-.7,0-.3,0-.5,0-.8v-2.8h-1.1Z" class="st11"></path>
      <path d="M145.9,85.9c.4,0,.7,0,1,.2.3.1.5.3.7.5.2.2.3.5.4.8,0,.3.1.6.1.9v3.8h-1.5v-3.3c0-.2,0-.4,0-.5,0-.2,0-.4-.2-.5,0-.2-.2-.3-.3-.4-.1-.1-.3-.2-.6-.2s-.5,0-.6.1c-.2,0-.3.2-.4.4s-.2.3-.3.5c0,.2,0,.4,0,.6v3.3h-1.5v-9.5h1.5v4.3h0c0-.1.1-.2.3-.4.1-.1.2-.2.4-.3.2,0,.3-.2.5-.2s.4,0,.6,0Z" class="st11"></path>
      <path d="M155.7,89.2v.2c0,0,0,.1,0,.2h-4.6c0,.2,0,.4.2.6,0,.2.2.3.4.5.2.1.3.2.5.3.2,0,.4.1.6.1.4,0,.7,0,1-.2.3-.1.5-.3.6-.6l1,.8c-.6.8-1.5,1.2-2.6,1.2s-.9,0-1.3-.2c-.4-.1-.7-.4-1-.6-.3-.3-.5-.6-.7-1-.2-.4-.2-.8-.2-1.3s0-.9.2-1.3c.2-.4.4-.7.7-1,.3-.3.6-.5,1-.7.4-.2.8-.2,1.3-.2s.8,0,1.2.2c.4.1.7.3.9.6.3.3.5.6.6,1,.1.4.2.9.2,1.4ZM154.2,88.5c0-.2,0-.4,0-.6s-.1-.3-.3-.5c-.1-.1-.3-.2-.4-.3-.2,0-.4-.1-.6-.1-.5,0-.8.1-1.2.4s-.5.6-.5,1.1h3.1Z" class="st11"></path>
      <path d="M159.9,89.1c0-.5,0-.9.3-1.3s.4-.7.7-1c.3-.3.6-.5,1-.6.4-.2.8-.2,1.3-.2s.9,0,1.3.2c.4.2.8.4,1,.6.3.3.5.6.7,1s.3.8.3,1.3,0,.9-.3,1.3c-.2.4-.4.7-.7,1-.3.3-.6.5-1,.7s-.8.2-1.3.2-.9,0-1.3-.2-.8-.4-1-.7c-.3-.3-.5-.6-.7-1-.2-.4-.3-.8-.3-1.3ZM161.5,89.1c0,.2,0,.5.1.7s.2.4.3.6c.1.2.3.3.5.5.2.1.5.2.8.2s.6,0,.8-.2c.2-.1.4-.3.5-.5s.2-.4.3-.6.1-.5.1-.7,0-.5-.1-.7c0-.2-.2-.4-.3-.6s-.3-.3-.5-.4c-.2-.1-.5-.2-.8-.2s-.6,0-.8.2c-.2.1-.4.3-.5.4-.1.2-.2.4-.3.6,0,.2-.1.5-.1.7Z" class="st11"></path>
      <path d="M168,86.1h1.4v1h0c.2-.4.4-.6.7-.9s.7-.3,1.1-.3.1,0,.2,0c0,0,.1,0,.2,0v1.4c-.1,0-.2,0-.3,0,0,0-.1,0-.2,0-.3,0-.6,0-.8.2-.2.1-.4.3-.5.5-.1.2-.2.4-.2.5s0,.3,0,.4v3.2h-1.5v-6Z" class="st11"></path>
      <path d="M172.4,84.1c0-.2,0-.5.3-.6s.4-.3.7-.3.5,0,.7.3c.2.2.3.4.3.6s0,.5-.3.6c-.2.2-.4.3-.7.3s-.5,0-.7-.3-.3-.4-.3-.6ZM172.6,86.1h1.5v6h-1.5v-6Z" class="st11"></path>
      <path d="M182.1,86.1v5.5c0,.5,0,1-.2,1.5s-.3.8-.6,1.1c-.3.3-.6.5-1.1.7s-.9.3-1.5.3-.5,0-.8,0-.5-.1-.8-.2c-.3,0-.5-.2-.8-.3s-.5-.3-.7-.4l.9-1.2c.3.3.6.5,1,.6.4.1.7.2,1.1.2s.7,0,.9-.2c.2-.1.4-.2.6-.4.1-.2.3-.4.3-.7,0-.3,0-.5,0-.8v-.4h0c-.2.3-.5.5-.8.7-.3.2-.7.2-1.1.2s-.9,0-1.2-.3c-.4-.2-.7-.4-.9-.7s-.5-.6-.6-1c-.1-.4-.2-.8-.2-1.2s0-.8.2-1.2c.1-.4.3-.7.6-1s.6-.5.9-.7c.4-.2.8-.3,1.2-.3s.8,0,1.2.3c.4.2.7.4.9.8h0v-.9h1.4ZM178.8,87.2c-.3,0-.5,0-.7.2-.2,0-.4.2-.5.4-.1.2-.3.4-.3.6,0,.2-.1.5-.1.8s0,.5.1.7c0,.2.2.4.3.6.1.2.3.3.5.4s.5.2.7.2.5,0,.7-.2c.2-.1.4-.2.6-.4.2-.2.3-.4.4-.6,0-.2.1-.5.1-.7s0-.5-.1-.7c0-.2-.2-.4-.4-.6-.2-.2-.3-.3-.6-.4-.2-.1-.5-.2-.7-.2Z" class="st11"></path>
      <path d="M183.7,84.1c0-.2,0-.5.3-.6s.4-.3.7-.3.5,0,.7.3c.2.2.3.4.3.6s0,.5-.3.6c-.2.2-.4.3-.7.3s-.5,0-.7-.3-.3-.4-.3-.6ZM183.9,86.1h1.5v6h-1.5v-6Z" class="st11"></path>
      <path d="M187.2,86.1h1.4v1h0c.1-.3.4-.6.7-.8.3-.2.7-.3,1.2-.3s.7,0,1,.2c.3.1.5.3.7.5s.3.5.4.8c0,.3.1.6.1.9v3.8h-1.5v-3.3c0-.2,0-.4,0-.6,0-.2,0-.4-.2-.5,0-.2-.2-.3-.3-.4-.1-.1-.3-.2-.6-.2s-.5,0-.6.1c-.2,0-.3.2-.4.4-.1.2-.2.3-.3.5,0,.2,0,.4,0,.6v3.3h-1.5v-6Z" class="st11"></path>
      <path d="M198.3,91.4h0c-.2.3-.4.5-.7.7-.3.2-.7.3-1.1.3s-.5,0-.8,0-.5-.2-.7-.3c-.2-.1-.4-.3-.6-.6-.1-.2-.2-.5-.2-.9s.1-.8.4-1.1.6-.5,1-.6c.4-.1.8-.2,1.3-.3.5,0,1,0,1.4,0v-.2c0-.4-.1-.7-.4-.8s-.6-.3-1-.3-.6,0-.9.2c-.3.1-.5.3-.7.5l-.8-.9c.3-.3.7-.6,1.2-.7.4-.2.9-.2,1.4-.2s1,0,1.3.2c.3.2.6.3.8.6.2.2.3.5.4.8s.1.6.1.9v3.7h-1.4v-.8ZM198.3,89.4h-.3c-.2,0-.5,0-.8,0s-.5,0-.7.1-.4.2-.6.3c-.2.1-.2.3-.2.5s0,.3,0,.4c0,0,.1.2.2.2s.2.1.3.1c.1,0,.3,0,.4,0,.5,0,.9-.1,1.2-.4.3-.3.4-.7.4-1.1v-.2Z" class="st11"></path>
      <path d="M201.5,82.6h1.5v9.5h-1.5v-9.5Z" class="st11"></path>
      <path d="M211.3,87.7c-.1-.2-.3-.3-.6-.5-.2-.1-.5-.2-.8-.2s-.5,0-.7.2-.3.3-.3.5.1.4.3.5c.2,0,.5.2,1,.3.2,0,.5.1.7.2s.4.2.6.3c.2.1.3.3.5.5.1.2.2.5.2.7s0,.7-.2.9-.3.5-.6.6-.5.3-.8.3c-.3,0-.6.1-1,.1-.5,0-.9,0-1.4-.3s-.8-.4-1.1-.7l1-.9c.2.2.4.4.7.5s.6.2.9.2.2,0,.3,0c.1,0,.2,0,.3-.1s.2-.1.2-.2c0,0,0-.2,0-.3,0-.3-.1-.4-.3-.5-.2-.1-.6-.2-1-.3-.2,0-.4-.1-.7-.2-.2,0-.4-.2-.6-.3-.2-.1-.3-.3-.4-.5-.1-.2-.2-.4-.2-.7s0-.6.2-.9c.1-.2.3-.4.5-.6s.5-.3.8-.3.6-.1.9-.1c.4,0,.9,0,1.3.2.4.2.7.4,1,.7l-1,.9Z" class="st11"></path>
      <path d="M213.4,84.1c0-.2,0-.5.3-.6s.4-.3.7-.3.5,0,.7.3c.2.2.3.4.3.6s0,.5-.3.6c-.2.2-.4.3-.7.3s-.5,0-.7-.3-.3-.4-.3-.6ZM213.6,86.1h1.5v6h-1.5v-6Z" class="st11"></path>
      <path d="M217,86.1h1.4v1h0c.1-.3.4-.6.7-.8.3-.2.7-.3,1.2-.3s.7,0,1,.2c.3.1.5.3.7.5s.3.5.4.8c0,.3.1.6.1.9v3.8h-1.5v-3.3c0-.2,0-.4,0-.6,0-.2,0-.4-.2-.5,0-.2-.2-.3-.3-.4-.1-.1-.3-.2-.6-.2s-.5,0-.6.1c-.2,0-.3.2-.4.4-.1.2-.2.3-.3.5,0,.2,0,.4,0,.6v3.3h-1.5v-6Z" class="st11"></path>
      <path d="M228.4,87.8c-.1-.2-.3-.3-.5-.4-.2-.1-.5-.2-.7-.2s-.5,0-.7.2c-.2.1-.4.3-.5.4s-.2.4-.3.6c0,.2-.1.5-.1.7s0,.5.1.7.2.4.3.6.3.3.5.4.5.2.7.2.5,0,.7-.1c.2,0,.4-.2.6-.4l.9,1c-.3.3-.6.5-1,.6s-.8.2-1.3.2-.9,0-1.3-.2c-.4-.1-.7-.4-1-.6-.3-.3-.5-.6-.7-1-.2-.4-.3-.8-.3-1.3s0-.9.3-1.3c.2-.4.4-.7.7-1,.3-.3.6-.5,1-.6.4-.2.8-.2,1.3-.2s.9,0,1.3.3.7.4,1,.7l-1,.9Z" class="st11"></path>
      <path d="M236.2,89.2v.2c0,0,0,.1,0,.2h-4.6c0,.2,0,.4.2.6,0,.2.2.3.4.5.2.1.3.2.5.3.2,0,.4.1.6.1.4,0,.7,0,1-.2.3-.1.5-.3.6-.6l1,.8c-.6.8-1.5,1.2-2.6,1.2s-.9,0-1.3-.2c-.4-.1-.7-.4-1-.6-.3-.3-.5-.6-.7-1-.2-.4-.2-.8-.2-1.3s0-.9.2-1.3c.2-.4.4-.7.7-1,.3-.3.6-.5,1-.7.4-.2.8-.2,1.3-.2s.8,0,1.2.2c.4.1.7.3.9.6.3.3.5.6.6,1,.1.4.2.9.2,1.4ZM234.7,88.5c0-.2,0-.4,0-.6s-.1-.3-.3-.5c-.1-.1-.3-.2-.4-.3-.2,0-.4-.1-.6-.1-.5,0-.8.1-1.2.4s-.5.6-.5,1.1h3.1Z" class="st11"></path>
      <path d="M240.8,90.8l3.4-3.4c.3-.3.5-.5.7-.8.2-.3.2-.6.2-.9s-.1-.8-.4-1c-.3-.2-.6-.4-1-.4s-.8.1-1,.4-.4.7-.5,1.1l-1.5-.2c0-.4.1-.7.3-1,.2-.3.4-.6.6-.8.3-.2.6-.4.9-.5.3-.1.7-.2,1.1-.2s.8,0,1.1.2c.4.1.7.3.9.5.3.2.5.5.7.8.2.3.2.7.2,1.1s0,.6-.1.8c0,.2-.2.5-.3.7s-.3.4-.5.6-.4.4-.6.6l-2.6,2.5h4v1.4h-5.9v-1.4Z" class="st11"></path>
      <path d="M254.5,87.7c0,.7,0,1.4-.2,1.9-.1.6-.3,1.1-.6,1.5-.3.4-.6.7-1,.9s-.8.3-1.3.3-1-.1-1.3-.3c-.4-.2-.7-.5-1-.9-.3-.4-.5-.9-.6-1.5-.1-.6-.2-1.2-.2-1.9s0-1.4.2-2c.1-.6.3-1.1.6-1.5.3-.4.6-.7,1-.9.4-.2.8-.3,1.3-.3s1,.1,1.3.3c.4.2.7.5,1,.9.3.4.5.9.6,1.5.1.6.2,1.2.2,2ZM253,87.7c0-.3,0-.7,0-1.1,0-.4-.1-.8-.2-1.1s-.3-.6-.5-.9c-.2-.2-.5-.4-.8-.4s-.6.1-.8.4c-.2.2-.4.5-.5.9s-.2.7-.2,1.1c0,.4,0,.7,0,1.1s0,.7,0,1.1c0,.4.1.8.2,1.1.1.3.3.6.5.9.2.2.5.4.8.4s.6-.1.8-.4c.2-.2.4-.5.5-.9.1-.3.2-.7.2-1.1,0-.4,0-.7,0-1.1Z" class="st11"></path>
      <path d="M262.2,87.7c0,.7,0,1.4-.2,1.9-.1.6-.3,1.1-.6,1.5-.3.4-.6.7-1,.9s-.8.3-1.3.3-1-.1-1.3-.3c-.4-.2-.7-.5-1-.9-.3-.4-.5-.9-.6-1.5-.1-.6-.2-1.2-.2-1.9s0-1.4.2-2c.1-.6.3-1.1.6-1.5.3-.4.6-.7,1-.9.4-.2.8-.3,1.3-.3s1,.1,1.3.3c.4.2.7.5,1,.9.3.4.5.9.6,1.5.1.6.2,1.2.2,2ZM260.7,87.7c0-.3,0-.7,0-1.1,0-.4-.1-.8-.2-1.1s-.3-.6-.5-.9c-.2-.2-.5-.4-.8-.4s-.6.1-.8.4c-.2.2-.4.5-.5.9s-.2.7-.2,1.1c0,.4,0,.7,0,1.1s0,.7,0,1.1c0,.4.1.8.2,1.1.1.3.3.6.5.9.2.2.5.4.8.4s.6-.1.8-.4c.2-.2.4-.5.5-.9.1-.3.2-.7.2-1.1,0-.4,0-.7,0-1.1Z" class="st11"></path>
      <path d="M265,92.1l2.3-3.3h0c-.1,0-.3,0-.5.1-.2,0-.3,0-.5,0-.4,0-.8,0-1.1-.2s-.6-.3-.9-.6c-.3-.3-.5-.6-.6-.9-.1-.3-.2-.7-.2-1.1s0-.9.3-1.3.4-.7.7-1c.3-.3.6-.5,1-.6.4-.1.8-.2,1.3-.2s.9,0,1.3.2c.4.2.7.4,1,.6.3.3.5.6.7,1,.2.4.2.8.2,1.2s0,.5,0,.7c0,.2-.1.4-.2.6,0,.2-.2.4-.3.6-.1.2-.2.4-.4.7l-2.2,3.4h-1.8ZM268.5,86c0-.2,0-.5-.1-.7,0-.2-.2-.4-.3-.6-.2-.2-.3-.3-.5-.4-.2,0-.4-.1-.7-.1-.5,0-.9.2-1.2.5-.3.3-.5.8-.5,1.3s0,.5.1.7c0,.2.2.4.3.5.2.2.3.3.5.4.2,0,.4.1.7.1s.5,0,.7-.1.4-.2.6-.4.3-.3.4-.6c0-.2.1-.5.1-.7Z" class="st11"></path>
    </g>
    <g>
      <path d="M140.5,94c-.7,0-1.2-.1-1.7-.3-.5-.2-1-.6-1.3-1-.3-.4-.5-.9-.6-1.4,0-.4-.1-.8-.1-1.2v-1.2c-.6-.3-1.1-.9-1.1-1.6v-1.2c0-.7.4-1.3,1.1-1.6h0c0-1.1.8-1.9,1.8-1.9h1.5c1,0,1.8.8,1.8,1.8h0c.9.1,1.5.9,1.5,1.7v1.2c0,.9-.7,1.6-1.5,1.7v.2c.2,0,.4.1.6.2.5.3.8.8.8,1.4v1.2c0,.8-.4,1.4-1.1,1.7-.2,0-.5.2-.8.2-.3,0-.5,0-.8,0Z"></path>
      <path d="M146.7,93.9c-.5,0-1-.2-1.3-.5-.3.3-.8.5-1.3.5h-1.5c-1,0-1.8-.8-1.8-1.8v-9.5c0-1,.8-1.8,1.8-1.8h1.5c1,0,1.8.8,1.8,1.8v1.5s0,0,0,0c.7,0,1.3.1,1.8.4.5.2.9.6,1.3,1,.3.4.6.9.7,1.4.1.5.2.9.2,1.4v3.8c0,1-.8,1.8-1.8,1.8h-1.5Z"></path>
      <path d="M152.8,94.1c-.7,0-1.3-.1-1.9-.3-.6-.2-1.1-.6-1.6-1-.5-.4-.8-1-1.1-1.6-.3-.6-.4-1.3-.4-2s.1-1.4.4-2c.3-.6.6-1.2,1.1-1.6.5-.4,1-.8,1.6-1,.6-.2,1.2-.4,1.9-.4s1.2.1,1.8.3c.6.2,1.1.6,1.6,1,.4.5.8,1,1,1.6.2.6.3,1.3.3,2v.2c0,.1,0,.3,0,.4,0,.3-.1.6-.3.8.1.5,0,1.1-.3,1.5-.9,1.3-2.3,1.9-4,1.9Z"></path>
      <path d="M163.2,94.1c-.7,0-1.3-.1-1.9-.4-.6-.2-1.2-.6-1.6-1-.5-.4-.8-1-1.1-1.6-.3-.6-.4-1.3-.4-2s.1-1.4.4-2c.3-.6.6-1.1,1.1-1.6.5-.4,1-.8,1.6-1,.6-.2,1.2-.3,1.9-.3s1.3.1,1.9.3c.6.2,1.2.6,1.6,1,.5.4.8,1,1.1,1.6.3.6.4,1.3.4,2s-.1,1.4-.4,2c-.3.6-.6,1.1-1.1,1.6-.5.4-1,.8-1.6,1-.6.2-1.3.4-1.9.4ZM163.2,88.9h0Z"></path>
      <path d="M168,93.9c-1,0-1.8-.8-1.8-1.8v-6c0-1,.8-1.8,1.8-1.8h1.4c.2,0,.3,0,.5,0,.4-.2.9-.2,1.3-.2s.2,0,.3,0c.2,0,.4,0,.6.1.7.2,1.2.9,1.2,1.7v1.4c0,.5-.2,1-.7,1.4-.3.2-.7.4-1.1.4s-.2,0-.3,0v3.1c0,1-.8,1.8-1.7,1.8h-1.5Z"></path>
      <path d="M172.6,93.9c-1,0-1.8-.8-1.8-1.8v-6c0-.3,0-.5.2-.7-.2-.4-.4-.9-.4-1.3,0-.7.3-1.4.8-1.9.5-.5,1.2-.8,1.9-.8s1.4.2,1.9.7c.5.5.9,1.2.9,1.9s-.1.9-.4,1.3c0,.2.1.5.1.7v6c0,1-.8,1.8-1.8,1.8h-1.5Z"></path>
      <path d="M178.7,96.9c-.3,0-.7,0-1,0-.4,0-.7-.1-1.1-.2-.4-.1-.7-.3-1-.4-.4-.2-.7-.4-1-.6-.7-.6-.8-1.6-.3-2.4l.6-.9c-.3-.4-.6-.8-.7-1.3-.2-.6-.3-1.2-.3-1.8s.1-1.2.3-1.8c.2-.6.5-1.1.9-1.6.4-.5.9-.8,1.5-1.1.6-.3,1.3-.4,2-.4s1.1,0,1.5.3c.2,0,.4,0,.6,0h1.4c1,0,1.8.8,1.8,1.8v5.5c0,.7,0,1.4-.3,2-.2.7-.5,1.3-1,1.8-.5.5-1,.9-1.7,1.2-.6.2-1.4.4-2.2.4ZM178.9,89.1s0,0,0,.1c0,0,0,0,0-.1s0,0,0-.1c0,0,0,0,0,.1ZM178.8,88.9h0Z"></path>
      <path d="M183.9,93.9c-1,0-1.8-.8-1.8-1.8v-6c0-.3,0-.5.2-.7-.2-.4-.4-.9-.4-1.3,0-.7.3-1.4.8-1.9.5-.5,1.2-.8,1.9-.8s1.4.2,1.9.7c.5.5.9,1.2.9,1.9s-.1.9-.4,1.3c0,.2.1.5.1.7v6c0,1-.8,1.8-1.8,1.8h-1.5Z"></path>
      <path d="M191.3,93.9c-.5,0-1-.2-1.3-.5-.3.3-.8.5-1.3.5h-1.5c-1,0-1.8-.8-1.8-1.8v-6c0-1,.8-1.8,1.8-1.8h1.4c.2,0,.3,0,.5,0,.4-.2.9-.2,1.4-.2s1.3.1,1.8.4c.5.2.9.6,1.3,1,.3.4.6.9.7,1.4.1.4.2.9.2,1.4v3.8c0,1-.8,1.8-1.8,1.8h-1.5Z"></path>
      <path d="M196.4,94c-.4,0-.8,0-1.2-.1-.5-.1-.9-.3-1.3-.6-.4-.3-.8-.7-1.1-1.1-.3-.5-.5-1.1-.5-1.8,0-1.1.5-1.9.9-2.3h-.1c-.6-.8-.5-1.9.1-2.5.5-.5,1.1-.8,1.8-1.1.6-.2,1.3-.3,2-.3s1.4.1,2,.4c.6.3,1.1.6,1.5,1.1.4.4.6.9.8,1.5.1.4.2.9.2,1.4v3.7c0,1-.8,1.8-1.8,1.8h-1.4c-.2,0-.3,0-.5,0-.4.1-.9.2-1.4.2Z"></path>
      <rect ry="1.8" rx="1.8" height="13" width="5" y="80.9" x="199.8"></rect>
      <path d="M209.8,94.1c-.7,0-1.4-.1-2-.4-.7-.3-1.3-.7-1.8-1.2-.7-.7-.6-1.8,0-2.5l.3-.3c0-.1-.1-.2-.2-.3-.2-.4-.3-1-.3-1.5s.1-1.2.4-1.7c.3-.5.6-.9,1.1-1.2.4-.3.8-.5,1.3-.6.4-.1.9-.2,1.3-.2.6,0,1.3.1,1.9.3.7.3,1.3.7,1.8,1.3.6.7.5,1.8-.2,2.4h-.1c.1.2.2.4.3.5.3.5.4,1,.4,1.6s-.1,1.3-.4,1.8c-.3.5-.6.9-1.1,1.2-.4.3-.9.5-1.4.6-.4.1-.9.2-1.3.2Z"></path>
      <path d="M213.6,93.9c-1,0-1.8-.8-1.8-1.8v-6c0-.3,0-.5.2-.7-.2-.4-.4-.9-.4-1.3,0-.7.3-1.4.8-1.9.5-.5,1.2-.8,1.9-.8s1.4.2,1.9.7c.5.5.9,1.2.9,1.9s-.1.9-.4,1.3c0,.2.1.5.1.7v6c0,1-.8,1.8-1.8,1.8h-1.5Z"></path>
      <path d="M221,93.9c-.5,0-1-.2-1.3-.5-.3.3-.8.5-1.3.5h-1.5c-1,0-1.8-.8-1.8-1.8v-6c0-1,.8-1.8,1.8-1.8h1.4c.2,0,.3,0,.5,0,.4-.2.9-.2,1.4-.2s1.3.1,1.8.4c.5.2.9.6,1.3,1,.3.4.6.9.7,1.4.1.4.2.9.2,1.4v3.8c0,1-.8,1.8-1.8,1.8h-1.5Z"></path>
      <path d="M227.2,94.1c-.6,0-1.3-.1-1.9-.3-.6-.2-1.2-.6-1.6-1-.5-.4-.8-1-1.1-1.6-.3-.6-.4-1.3-.4-2s.1-1.4.4-2c.3-.6.6-1.1,1.1-1.6.5-.4,1-.8,1.6-1,.6-.2,1.2-.3,1.9-.3s1.3.1,1.9.4c.7.3,1.2.7,1.7,1.2.6.7.5,1.8-.2,2.4,0,0-1.1.9-1.1.9,0,0,.1.1.2.2l.9,1c.7.7.7,1.7,0,2.4-.4.5-1,.8-1.6,1.1-.6.2-1.2.3-1.9.3ZM227.3,89.1s0,0,0,.1c0,0,0,0,0,0,0,0,0,0-.1,0,0,0,0,0,0,0Z"></path>
      <path d="M233.3,94.1c-.7,0-1.3-.1-1.9-.3-.6-.2-1.1-.6-1.6-1-.5-.4-.8-1-1.1-1.6-.3-.6-.4-1.3-.4-2s.1-1.4.4-2c.3-.6.6-1.2,1.1-1.6.5-.4,1-.8,1.6-1,.6-.2,1.2-.4,1.9-.4s1.2.1,1.8.3c.6.2,1.1.6,1.6,1,.4.5.8,1,1,1.6.2.6.3,1.3.3,2v.2c0,.1,0,.3,0,.4,0,.3-.1.6-.3.8.1.5,0,1.1-.3,1.5-.9,1.3-2.3,1.9-4,1.9Z"></path>
      <path d="M240.8,93.9c-1,0-1.8-.8-1.8-1.8v-1.4c0-.5.2-.9.5-1.2l2.1-2-1.2-.2c-.9-.1-1.6-1-1.5-1.9,0-.6.2-1.1.5-1.7.3-.5.6-.9,1-1.3.4-.4.9-.7,1.4-.9.5-.2,1.1-.3,1.7-.3s1.1,0,1.6.2c.6.2,1.1.4,1.5.8.5.4.8.8,1.1,1.4.3.6.4,1.2.4,1.9s0,.9-.2,1.3c-.1.4-.3.8-.5,1.1-.2.3-.4.6-.6.9,0,0,0,.1-.1.2.8.1,1.5.9,1.5,1.7v1.4c0,1-.8,1.8-1.8,1.8h-5.9Z"></path>
      <path d="M251.4,94.1c-.8,0-1.5-.2-2.2-.5-.6-.4-1.2-.9-1.6-1.5-.4-.6-.7-1.3-.9-2-.2-.7-.3-1.5-.3-2.4s0-1.7.3-2.4c.2-.8.5-1.5.9-2,.4-.6,1-1.1,1.6-1.5.7-.4,1.4-.5,2.2-.5s1.5.2,2.2.5c.6.4,1.2.9,1.6,1.5.4.6.7,1.3.8,2,.2.7.3,1.5.3,2.4s0,1.6-.3,2.4c-.2.8-.5,1.4-.8,2-.4.6-1,1.1-1.6,1.5-.7.4-1.4.5-2.2.5Z"></path>
      <path d="M259.1,94.1c-.8,0-1.5-.2-2.2-.5-.6-.4-1.2-.9-1.6-1.5-.4-.6-.7-1.3-.9-2-.2-.7-.3-1.5-.3-2.4s0-1.7.3-2.4c.2-.8.5-1.5.9-2,.4-.6,1-1.1,1.6-1.5.7-.4,1.4-.5,2.2-.5s1.5.2,2.2.5c.6.4,1.2.9,1.6,1.5.4.6.7,1.3.8,2,.2.7.3,1.5.3,2.4s0,1.6-.3,2.4c-.2.8-.5,1.4-.8,2-.4.6-1,1.1-1.6,1.5-.7.4-1.4.5-2.2.5Z"></path>
      <path d="M265,93.9c-.7,0-1.2-.4-1.5-.9-.3-.6-.3-1.3.1-1.8l.6-.9c-.4-.2-.8-.5-1.1-.8-.4-.4-.8-.9-1-1.5-.2-.6-.4-1.2-.4-1.8s.1-1.4.4-2c.3-.6.6-1.1,1.1-1.6.5-.4,1-.8,1.6-1,.6-.2,1.2-.3,1.9-.3s1.3.1,1.9.4c.6.2,1.1.6,1.6,1,.5.4.8,1,1.1,1.5.3.6.4,1.2.4,1.9s0,.7,0,1c0,.3-.2.6-.3.9-.1.3-.2.6-.4.8-.1.2-.3.5-.4.8l-2.2,3.5c-.3.5-.9.8-1.5.8h-1.8Z"></path>
    </g>
    <g>
      <path d="M137.4,87.3v-1.2h1.1v-1.7h1.5v1.7h1.5v1.2h-1.5v2.8c0,.3,0,.5.1.7,0,.2.3.3.6.3s.2,0,.3,0c.1,0,.2,0,.3,0v1.2c0,0-.2,0-.4.1-.2,0-.4,0-.5,0-.4,0-.7,0-1-.2-.3-.1-.5-.3-.6-.5-.1-.2-.2-.4-.3-.7,0-.3,0-.5,0-.8v-2.8h-1.1Z" class="st11"></path>
      <path d="M145.9,85.9c.4,0,.7,0,1,.2.3.1.5.3.7.5.2.2.3.5.4.8,0,.3.1.6.1.9v3.8h-1.5v-3.3c0-.2,0-.4,0-.5,0-.2,0-.4-.2-.5,0-.2-.2-.3-.3-.4-.1-.1-.3-.2-.6-.2s-.5,0-.6.1c-.2,0-.3.2-.4.4s-.2.3-.3.5c0,.2,0,.4,0,.6v3.3h-1.5v-9.5h1.5v4.3h0c0-.1.1-.2.3-.4.1-.1.2-.2.4-.3.2,0,.3-.2.5-.2s.4,0,.6,0Z" class="st11"></path>
      <path d="M155.7,89.2v.2c0,0,0,.1,0,.2h-4.6c0,.2,0,.4.2.6,0,.2.2.3.4.5.2.1.3.2.5.3.2,0,.4.1.6.1.4,0,.7,0,1-.2.3-.1.5-.3.6-.6l1,.8c-.6.8-1.5,1.2-2.6,1.2s-.9,0-1.3-.2c-.4-.1-.7-.4-1-.6-.3-.3-.5-.6-.7-1-.2-.4-.2-.8-.2-1.3s0-.9.2-1.3c.2-.4.4-.7.7-1,.3-.3.6-.5,1-.7.4-.2.8-.2,1.3-.2s.8,0,1.2.2c.4.1.7.3.9.6.3.3.5.6.6,1,.1.4.2.9.2,1.4ZM154.2,88.5c0-.2,0-.4,0-.6s-.1-.3-.3-.5c-.1-.1-.3-.2-.4-.3-.2,0-.4-.1-.6-.1-.5,0-.8.1-1.2.4s-.5.6-.5,1.1h3.1Z" class="st11"></path>
      <path d="M159.9,89.1c0-.5,0-.9.3-1.3s.4-.7.7-1c.3-.3.6-.5,1-.6.4-.2.8-.2,1.3-.2s.9,0,1.3.2c.4.2.8.4,1,.6.3.3.5.6.7,1s.3.8.3,1.3,0,.9-.3,1.3c-.2.4-.4.7-.7,1-.3.3-.6.5-1,.7s-.8.2-1.3.2-.9,0-1.3-.2-.8-.4-1-.7c-.3-.3-.5-.6-.7-1-.2-.4-.3-.8-.3-1.3ZM161.5,89.1c0,.2,0,.5.1.7s.2.4.3.6c.1.2.3.3.5.5.2.1.5.2.8.2s.6,0,.8-.2c.2-.1.4-.3.5-.5s.2-.4.3-.6.1-.5.1-.7,0-.5-.1-.7c0-.2-.2-.4-.3-.6s-.3-.3-.5-.4c-.2-.1-.5-.2-.8-.2s-.6,0-.8.2c-.2.1-.4.3-.5.4-.1.2-.2.4-.3.6,0,.2-.1.5-.1.7Z" class="st11"></path>
      <path d="M168,86.1h1.4v1h0c.2-.4.4-.6.7-.9s.7-.3,1.1-.3.1,0,.2,0c0,0,.1,0,.2,0v1.4c-.1,0-.2,0-.3,0,0,0-.1,0-.2,0-.3,0-.6,0-.8.2-.2.1-.4.3-.5.5-.1.2-.2.4-.2.5s0,.3,0,.4v3.2h-1.5v-6Z" class="st11"></path>
      <path d="M172.4,84.1c0-.2,0-.5.3-.6s.4-.3.7-.3.5,0,.7.3c.2.2.3.4.3.6s0,.5-.3.6c-.2.2-.4.3-.7.3s-.5,0-.7-.3-.3-.4-.3-.6ZM172.6,86.1h1.5v6h-1.5v-6Z" class="st11"></path>
      <path d="M182.1,86.1v5.5c0,.5,0,1-.2,1.5s-.3.8-.6,1.1c-.3.3-.6.5-1.1.7s-.9.3-1.5.3-.5,0-.8,0-.5-.1-.8-.2c-.3,0-.5-.2-.8-.3s-.5-.3-.7-.4l.9-1.2c.3.3.6.5,1,.6.4.1.7.2,1.1.2s.7,0,.9-.2c.2-.1.4-.2.6-.4.1-.2.3-.4.3-.7,0-.3,0-.5,0-.8v-.4h0c-.2.3-.5.5-.8.7-.3.2-.7.2-1.1.2s-.9,0-1.2-.3c-.4-.2-.7-.4-.9-.7s-.5-.6-.6-1c-.1-.4-.2-.8-.2-1.2s0-.8.2-1.2c.1-.4.3-.7.6-1s.6-.5.9-.7c.4-.2.8-.3,1.2-.3s.8,0,1.2.3c.4.2.7.4.9.8h0v-.9h1.4ZM178.8,87.2c-.3,0-.5,0-.7.2-.2,0-.4.2-.5.4-.1.2-.3.4-.3.6,0,.2-.1.5-.1.8s0,.5.1.7c0,.2.2.4.3.6.1.2.3.3.5.4s.5.2.7.2.5,0,.7-.2c.2-.1.4-.2.6-.4.2-.2.3-.4.4-.6,0-.2.1-.5.1-.7s0-.5-.1-.7c0-.2-.2-.4-.4-.6-.2-.2-.3-.3-.6-.4-.2-.1-.5-.2-.7-.2Z" class="st11"></path>
      <path d="M183.7,84.1c0-.2,0-.5.3-.6s.4-.3.7-.3.5,0,.7.3c.2.2.3.4.3.6s0,.5-.3.6c-.2.2-.4.3-.7.3s-.5,0-.7-.3-.3-.4-.3-.6ZM183.9,86.1h1.5v6h-1.5v-6Z" class="st11"></path>
      <path d="M187.2,86.1h1.4v1h0c.1-.3.4-.6.7-.8.3-.2.7-.3,1.2-.3s.7,0,1,.2c.3.1.5.3.7.5s.3.5.4.8c0,.3.1.6.1.9v3.8h-1.5v-3.3c0-.2,0-.4,0-.6,0-.2,0-.4-.2-.5,0-.2-.2-.3-.3-.4-.1-.1-.3-.2-.6-.2s-.5,0-.6.1c-.2,0-.3.2-.4.4-.1.2-.2.3-.3.5,0,.2,0,.4,0,.6v3.3h-1.5v-6Z" class="st11"></path>
      <path d="M198.3,91.4h0c-.2.3-.4.5-.7.7-.3.2-.7.3-1.1.3s-.5,0-.8,0-.5-.2-.7-.3c-.2-.1-.4-.3-.6-.6-.1-.2-.2-.5-.2-.9s.1-.8.4-1.1.6-.5,1-.6c.4-.1.8-.2,1.3-.3.5,0,1,0,1.4,0v-.2c0-.4-.1-.7-.4-.8s-.6-.3-1-.3-.6,0-.9.2c-.3.1-.5.3-.7.5l-.8-.9c.3-.3.7-.6,1.2-.7.4-.2.9-.2,1.4-.2s1,0,1.3.2c.3.2.6.3.8.6.2.2.3.5.4.8s.1.6.1.9v3.7h-1.4v-.8ZM198.3,89.4h-.3c-.2,0-.5,0-.8,0s-.5,0-.7.1-.4.2-.6.3c-.2.1-.2.3-.2.5s0,.3,0,.4c0,0,.1.2.2.2s.2.1.3.1c.1,0,.3,0,.4,0,.5,0,.9-.1,1.2-.4.3-.3.4-.7.4-1.1v-.2Z" class="st11"></path>
      <path d="M201.5,82.6h1.5v9.5h-1.5v-9.5Z" class="st11"></path>
      <path d="M211.3,87.7c-.1-.2-.3-.3-.6-.5-.2-.1-.5-.2-.8-.2s-.5,0-.7.2-.3.3-.3.5.1.4.3.5c.2,0,.5.2,1,.3.2,0,.5.1.7.2s.4.2.6.3c.2.1.3.3.5.5.1.2.2.5.2.7s0,.7-.2.9-.3.5-.6.6-.5.3-.8.3c-.3,0-.6.1-1,.1-.5,0-.9,0-1.4-.3s-.8-.4-1.1-.7l1-.9c.2.2.4.4.7.5s.6.2.9.2.2,0,.3,0c.1,0,.2,0,.3-.1s.2-.1.2-.2c0,0,0-.2,0-.3,0-.3-.1-.4-.3-.5-.2-.1-.6-.2-1-.3-.2,0-.4-.1-.7-.2-.2,0-.4-.2-.6-.3-.2-.1-.3-.3-.4-.5-.1-.2-.2-.4-.2-.7s0-.6.2-.9c.1-.2.3-.4.5-.6s.5-.3.8-.3.6-.1.9-.1c.4,0,.9,0,1.3.2.4.2.7.4,1,.7l-1,.9Z" class="st11"></path>
      <path d="M213.4,84.1c0-.2,0-.5.3-.6s.4-.3.7-.3.5,0,.7.3c.2.2.3.4.3.6s0,.5-.3.6c-.2.2-.4.3-.7.3s-.5,0-.7-.3-.3-.4-.3-.6ZM213.6,86.1h1.5v6h-1.5v-6Z" class="st11"></path>
      <path d="M217,86.1h1.4v1h0c.1-.3.4-.6.7-.8.3-.2.7-.3,1.2-.3s.7,0,1,.2c.3.1.5.3.7.5s.3.5.4.8c0,.3.1.6.1.9v3.8h-1.5v-3.3c0-.2,0-.4,0-.6,0-.2,0-.4-.2-.5,0-.2-.2-.3-.3-.4-.1-.1-.3-.2-.6-.2s-.5,0-.6.1c-.2,0-.3.2-.4.4-.1.2-.2.3-.3.5,0,.2,0,.4,0,.6v3.3h-1.5v-6Z" class="st11"></path>
      <path d="M228.4,87.8c-.1-.2-.3-.3-.5-.4-.2-.1-.5-.2-.7-.2s-.5,0-.7.2c-.2.1-.4.3-.5.4s-.2.4-.3.6c0,.2-.1.5-.1.7s0,.5.1.7.2.4.3.6.3.3.5.4.5.2.7.2.5,0,.7-.1c.2,0,.4-.2.6-.4l.9,1c-.3.3-.6.5-1,.6s-.8.2-1.3.2-.9,0-1.3-.2c-.4-.1-.7-.4-1-.6-.3-.3-.5-.6-.7-1-.2-.4-.3-.8-.3-1.3s0-.9.3-1.3c.2-.4.4-.7.7-1,.3-.3.6-.5,1-.6.4-.2.8-.2,1.3-.2s.9,0,1.3.3.7.4,1,.7l-1,.9Z" class="st11"></path>
      <path d="M236.2,89.2v.2c0,0,0,.1,0,.2h-4.6c0,.2,0,.4.2.6,0,.2.2.3.4.5.2.1.3.2.5.3.2,0,.4.1.6.1.4,0,.7,0,1-.2.3-.1.5-.3.6-.6l1,.8c-.6.8-1.5,1.2-2.6,1.2s-.9,0-1.3-.2c-.4-.1-.7-.4-1-.6-.3-.3-.5-.6-.7-1-.2-.4-.2-.8-.2-1.3s0-.9.2-1.3c.2-.4.4-.7.7-1,.3-.3.6-.5,1-.7.4-.2.8-.2,1.3-.2s.8,0,1.2.2c.4.1.7.3.9.6.3.3.5.6.6,1,.1.4.2.9.2,1.4ZM234.7,88.5c0-.2,0-.4,0-.6s-.1-.3-.3-.5c-.1-.1-.3-.2-.4-.3-.2,0-.4-.1-.6-.1-.5,0-.8.1-1.2.4s-.5.6-.5,1.1h3.1Z" class="st11"></path>
      <path d="M240.8,90.8l3.4-3.4c.3-.3.5-.5.7-.8.2-.3.2-.6.2-.9s-.1-.8-.4-1c-.3-.2-.6-.4-1-.4s-.8.1-1,.4-.4.7-.5,1.1l-1.5-.2c0-.4.1-.7.3-1,.2-.3.4-.6.6-.8.3-.2.6-.4.9-.5.3-.1.7-.2,1.1-.2s.8,0,1.1.2c.4.1.7.3.9.5.3.2.5.5.7.8.2.3.2.7.2,1.1s0,.6-.1.8c0,.2-.2.5-.3.7s-.3.4-.5.6-.4.4-.6.6l-2.6,2.5h4v1.4h-5.9v-1.4Z" class="st11"></path>
      <path d="M254.5,87.7c0,.7,0,1.4-.2,1.9-.1.6-.3,1.1-.6,1.5-.3.4-.6.7-1,.9s-.8.3-1.3.3-1-.1-1.3-.3c-.4-.2-.7-.5-1-.9-.3-.4-.5-.9-.6-1.5-.1-.6-.2-1.2-.2-1.9s0-1.4.2-2c.1-.6.3-1.1.6-1.5.3-.4.6-.7,1-.9.4-.2.8-.3,1.3-.3s1,.1,1.3.3c.4.2.7.5,1,.9.3.4.5.9.6,1.5.1.6.2,1.2.2,2ZM253,87.7c0-.3,0-.7,0-1.1,0-.4-.1-.8-.2-1.1s-.3-.6-.5-.9c-.2-.2-.5-.4-.8-.4s-.6.1-.8.4c-.2.2-.4.5-.5.9s-.2.7-.2,1.1c0,.4,0,.7,0,1.1s0,.7,0,1.1c0,.4.1.8.2,1.1.1.3.3.6.5.9.2.2.5.4.8.4s.6-.1.8-.4c.2-.2.4-.5.5-.9.1-.3.2-.7.2-1.1,0-.4,0-.7,0-1.1Z" class="st11"></path>
      <path d="M262.2,87.7c0,.7,0,1.4-.2,1.9-.1.6-.3,1.1-.6,1.5-.3.4-.6.7-1,.9s-.8.3-1.3.3-1-.1-1.3-.3c-.4-.2-.7-.5-1-.9-.3-.4-.5-.9-.6-1.5-.1-.6-.2-1.2-.2-1.9s0-1.4.2-2c.1-.6.3-1.1.6-1.5.3-.4.6-.7,1-.9.4-.2.8-.3,1.3-.3s1,.1,1.3.3c.4.2.7.5,1,.9.3.4.5.9.6,1.5.1.6.2,1.2.2,2ZM260.7,87.7c0-.3,0-.7,0-1.1,0-.4-.1-.8-.2-1.1s-.3-.6-.5-.9c-.2-.2-.5-.4-.8-.4s-.6.1-.8.4c-.2.2-.4.5-.5.9s-.2.7-.2,1.1c0,.4,0,.7,0,1.1s0,.7,0,1.1c0,.4.1.8.2,1.1.1.3.3.6.5.9.2.2.5.4.8.4s.6-.1.8-.4c.2-.2.4-.5.5-.9.1-.3.2-.7.2-1.1,0-.4,0-.7,0-1.1Z" class="st11"></path>
      <path d="M265,92.1l2.3-3.3h0c-.1,0-.3,0-.5.1-.2,0-.3,0-.5,0-.4,0-.8,0-1.1-.2s-.6-.3-.9-.6c-.3-.3-.5-.6-.6-.9-.1-.3-.2-.7-.2-1.1s0-.9.3-1.3.4-.7.7-1c.3-.3.6-.5,1-.6.4-.1.8-.2,1.3-.2s.9,0,1.3.2c.4.2.7.4,1,.6.3.3.5.6.7,1,.2.4.2.8.2,1.2s0,.5,0,.7c0,.2-.1.4-.2.6,0,.2-.2.4-.3.6-.1.2-.2.4-.4.7l-2.2,3.4h-1.8ZM268.5,86c0-.2,0-.5-.1-.7,0-.2-.2-.4-.3-.6-.2-.2-.3-.3-.5-.4-.2,0-.4-.1-.7-.1-.5,0-.9.2-1.2.5-.3.3-.5.8-.5,1.3s0,.5.1.7c0,.2.2.4.3.5.2.2.3.3.5.4.2,0,.4.1.7.1s.5,0,.7-.1.4-.2.6-.4.3-.3.4-.6c0-.2.1-.5.1-.7Z" class="st11"></path>
    </g>
  </g>
  <g>
    <g>
      <path d="M137.4,87.3v-1.2h1.1v-1.7h1.5v1.7h1.5v1.2h-1.5v2.8c0,.3,0,.5.1.7,0,.2.3.3.6.3s.2,0,.3,0c.1,0,.2,0,.3,0v1.2c0,0-.2,0-.4.1-.2,0-.4,0-.5,0-.4,0-.7,0-1-.2-.3-.1-.5-.3-.6-.5-.1-.2-.2-.4-.3-.7,0-.3,0-.5,0-.8v-2.8h-1.1Z" class="st11"></path>
      <path d="M145.9,85.9c.4,0,.7,0,1,.2.3.1.5.3.7.5.2.2.3.5.4.8,0,.3.1.6.1.9v3.8h-1.5v-3.3c0-.2,0-.4,0-.5,0-.2,0-.4-.2-.5,0-.2-.2-.3-.3-.4-.1-.1-.3-.2-.6-.2s-.5,0-.6.1c-.2,0-.3.2-.4.4s-.2.3-.3.5c0,.2,0,.4,0,.6v3.3h-1.5v-9.5h1.5v4.3h0c0-.1.1-.2.3-.4.1-.1.2-.2.4-.3.2,0,.3-.2.5-.2s.4,0,.6,0Z" class="st11"></path>
      <path d="M155.7,89.2v.2c0,0,0,.1,0,.2h-4.6c0,.2,0,.4.2.6,0,.2.2.3.4.5.2.1.3.2.5.3.2,0,.4.1.6.1.4,0,.7,0,1-.2.3-.1.5-.3.6-.6l1,.8c-.6.8-1.5,1.2-2.6,1.2s-.9,0-1.3-.2c-.4-.1-.7-.4-1-.6-.3-.3-.5-.6-.7-1-.2-.4-.2-.8-.2-1.3s0-.9.2-1.3c.2-.4.4-.7.7-1,.3-.3.6-.5,1-.7.4-.2.8-.2,1.3-.2s.8,0,1.2.2c.4.1.7.3.9.6.3.3.5.6.6,1,.1.4.2.9.2,1.4ZM154.2,88.5c0-.2,0-.4,0-.6s-.1-.3-.3-.5c-.1-.1-.3-.2-.4-.3-.2,0-.4-.1-.6-.1-.5,0-.8.1-1.2.4s-.5.6-.5,1.1h3.1Z" class="st11"></path>
      <path d="M159.9,89.1c0-.5,0-.9.3-1.3s.4-.7.7-1c.3-.3.6-.5,1-.6.4-.2.8-.2,1.3-.2s.9,0,1.3.2c.4.2.8.4,1,.6.3.3.5.6.7,1s.3.8.3,1.3,0,.9-.3,1.3c-.2.4-.4.7-.7,1-.3.3-.6.5-1,.7s-.8.2-1.3.2-.9,0-1.3-.2-.8-.4-1-.7c-.3-.3-.5-.6-.7-1-.2-.4-.3-.8-.3-1.3ZM161.5,89.1c0,.2,0,.5.1.7s.2.4.3.6c.1.2.3.3.5.5.2.1.5.2.8.2s.6,0,.8-.2c.2-.1.4-.3.5-.5s.2-.4.3-.6.1-.5.1-.7,0-.5-.1-.7c0-.2-.2-.4-.3-.6s-.3-.3-.5-.4c-.2-.1-.5-.2-.8-.2s-.6,0-.8.2c-.2.1-.4.3-.5.4-.1.2-.2.4-.3.6,0,.2-.1.5-.1.7Z" class="st11"></path>
      <path d="M168,86.1h1.4v1h0c.2-.4.4-.6.7-.9s.7-.3,1.1-.3.1,0,.2,0c0,0,.1,0,.2,0v1.4c-.1,0-.2,0-.3,0,0,0-.1,0-.2,0-.3,0-.6,0-.8.2-.2.1-.4.3-.5.5-.1.2-.2.4-.2.5s0,.3,0,.4v3.2h-1.5v-6Z" class="st11"></path>
      <path d="M172.4,84.1c0-.2,0-.5.3-.6s.4-.3.7-.3.5,0,.7.3c.2.2.3.4.3.6s0,.5-.3.6c-.2.2-.4.3-.7.3s-.5,0-.7-.3-.3-.4-.3-.6ZM172.6,86.1h1.5v6h-1.5v-6Z" class="st11"></path>
      <path d="M182.1,86.1v5.5c0,.5,0,1-.2,1.5s-.3.8-.6,1.1c-.3.3-.6.5-1.1.7s-.9.3-1.5.3-.5,0-.8,0-.5-.1-.8-.2c-.3,0-.5-.2-.8-.3s-.5-.3-.7-.4l.9-1.2c.3.3.6.5,1,.6.4.1.7.2,1.1.2s.7,0,.9-.2c.2-.1.4-.2.6-.4.1-.2.3-.4.3-.7,0-.3,0-.5,0-.8v-.4h0c-.2.3-.5.5-.8.7-.3.2-.7.2-1.1.2s-.9,0-1.2-.3c-.4-.2-.7-.4-.9-.7s-.5-.6-.6-1c-.1-.4-.2-.8-.2-1.2s0-.8.2-1.2c.1-.4.3-.7.6-1,.3-.3.6-.5.9-.7.4-.2.8-.3,1.2-.3s.8,0,1.2.3c.4.2.7.4.9.8h0v-.9h1.4ZM178.8,87.2c-.3,0-.5,0-.7.2-.2,0-.4.2-.5.4-.1.2-.3.4-.3.6,0,.2-.1.5-.1.8s0,.5.1.7c0,.2.2.4.3.6.1.2.3.3.5.4s.5.2.7.2.5,0,.7-.2c.2-.1.4-.2.6-.4.2-.2.3-.4.4-.6,0-.2.1-.5.1-.7s0-.5-.1-.7c0-.2-.2-.4-.4-.6-.2-.2-.3-.3-.6-.4-.2-.1-.5-.2-.7-.2Z" class="st11"></path>
      <path d="M183.7,84.1c0-.2,0-.5.3-.6s.4-.3.7-.3.5,0,.7.3c.2.2.3.4.3.6s0,.5-.3.6c-.2.2-.4.3-.7.3s-.5,0-.7-.3-.3-.4-.3-.6ZM183.9,86.1h1.5v6h-1.5v-6Z" class="st11"></path>
      <path d="M187.2,86.1h1.4v1h0c.1-.3.4-.6.7-.8.3-.2.7-.3,1.2-.3s.7,0,1,.2c.3.1.5.3.7.5s.3.5.4.8c0,.3.1.6.1.9v3.8h-1.5v-3.3c0-.2,0-.4,0-.6,0-.2,0-.4-.2-.5,0-.2-.2-.3-.3-.4-.1-.1-.3-.2-.6-.2s-.5,0-.6.1c-.2,0-.3.2-.4.4-.1.2-.2.3-.3.5,0,.2,0,.4,0,.6v3.3h-1.5v-6Z" class="st11"></path>
      <path d="M198.3,91.4h0c-.2.3-.4.5-.7.7-.3.2-.7.3-1.1.3s-.5,0-.8,0-.5-.2-.7-.3c-.2-.1-.4-.3-.6-.6-.1-.2-.2-.5-.2-.9s.1-.8.4-1.1.6-.5,1-.6c.4-.1.8-.2,1.3-.3.5,0,1,0,1.4,0v-.2c0-.4-.1-.7-.4-.8s-.6-.3-1-.3-.6,0-.9.2c-.3.1-.5.3-.7.5l-.8-.9c.3-.3.7-.6,1.2-.7.4-.2.9-.2,1.4-.2s1,0,1.3.2c.3.2.6.3.8.6.2.2.3.5.4.8s.1.6.1.9v3.7h-1.4v-.8ZM198.3,89.4h-.3c-.2,0-.5,0-.8,0s-.5,0-.7.1-.4.2-.6.3c-.2.1-.2.3-.2.5s0,.3,0,.4c0,0,.1.2.2.2.1,0,.2.1.3.1.1,0,.3,0,.4,0,.5,0,.9-.1,1.2-.4.3-.3.4-.7.4-1.1v-.2Z" class="st11"></path>
      <path d="M201.5,82.6h1.5v9.5h-1.5v-9.5Z" class="st11"></path>
      <path d="M211.3,87.7c-.1-.2-.3-.3-.6-.5-.2-.1-.5-.2-.8-.2s-.5,0-.7.2-.3.3-.3.5.1.4.3.5c.2,0,.5.2,1,.3.2,0,.5.1.7.2s.4.2.6.3c.2.1.3.3.5.5.1.2.2.5.2.7s0,.7-.2.9-.3.5-.6.6-.5.3-.8.3c-.3,0-.6.1-1,.1-.5,0-.9,0-1.4-.3s-.8-.4-1.1-.7l1-.9c.2.2.4.4.7.5s.6.2.9.2.2,0,.3,0c.1,0,.2,0,.3-.1s.2-.1.2-.2c0,0,0-.2,0-.3,0-.3-.1-.4-.3-.5-.2-.1-.6-.2-1-.3-.2,0-.4-.1-.7-.2-.2,0-.4-.2-.6-.3-.2-.1-.3-.3-.4-.5-.1-.2-.2-.4-.2-.7s0-.6.2-.9c.1-.2.3-.4.5-.6s.5-.3.8-.3.6-.1.9-.1c.4,0,.9,0,1.3.2.4.2.7.4,1,.7l-1,.9Z" class="st11"></path>
      <path d="M213.4,84.1c0-.2,0-.5.3-.6s.4-.3.7-.3.5,0,.7.3c.2.2.3.4.3.6s0,.5-.3.6c-.2.2-.4.3-.7.3s-.5,0-.7-.3-.3-.4-.3-.6ZM213.6,86.1h1.5v6h-1.5v-6Z" class="st11"></path>
      <path d="M217,86.1h1.4v1h0c.1-.3.4-.6.7-.8.3-.2.7-.3,1.2-.3s.7,0,1,.2c.3.1.5.3.7.5s.3.5.4.8c0,.3.1.6.1.9v3.8h-1.5v-3.3c0-.2,0-.4,0-.6,0-.2,0-.4-.2-.5,0-.2-.2-.3-.3-.4-.1-.1-.3-.2-.6-.2s-.5,0-.6.1c-.2,0-.3.2-.4.4-.1.2-.2.3-.3.5,0,.2,0,.4,0,.6v3.3h-1.5v-6Z" class="st11"></path>
      <path d="M228.4,87.8c-.1-.2-.3-.3-.5-.4-.2-.1-.5-.2-.7-.2s-.5,0-.7.2c-.2.1-.4.3-.5.4s-.2.4-.3.6c0,.2-.1.5-.1.7s0,.5.1.7.2.4.3.6.3.3.5.4.5.2.7.2.5,0,.7-.1c.2,0,.4-.2.6-.4l.9,1c-.3.3-.6.5-1,.6s-.8.2-1.3.2-.9,0-1.3-.2c-.4-.1-.7-.4-1-.6-.3-.3-.5-.6-.7-1-.2-.4-.3-.8-.3-1.3s0-.9.3-1.3c.2-.4.4-.7.7-1,.3-.3.6-.5,1-.6.4-.2.8-.2,1.3-.2s.9,0,1.3.3.7.4,1,.7l-1,.9Z" class="st11"></path>
      <path d="M236.2,89.2v.2c0,0,0,.1,0,.2h-4.6c0,.2,0,.4.2.6,0,.2.2.3.4.5.2.1.3.2.5.3.2,0,.4.1.6.1.4,0,.7,0,1-.2.3-.1.5-.3.6-.6l1,.8c-.6.8-1.5,1.2-2.6,1.2s-.9,0-1.3-.2c-.4-.1-.7-.4-1-.6-.3-.3-.5-.6-.7-1-.2-.4-.2-.8-.2-1.3s0-.9.2-1.3c.2-.4.4-.7.7-1,.3-.3.6-.5,1-.7.4-.2.8-.2,1.3-.2s.8,0,1.2.2c.4.1.7.3.9.6.3.3.5.6.6,1,.1.4.2.9.2,1.4ZM234.7,88.5c0-.2,0-.4,0-.6s-.1-.3-.3-.5c-.1-.1-.3-.2-.4-.3-.2,0-.4-.1-.6-.1-.5,0-.8.1-1.2.4s-.5.6-.5,1.1h3.1Z" class="st11"></path>
      <path d="M240.8,90.8l3.4-3.4c.3-.3.5-.5.7-.8.2-.3.2-.6.2-.9s-.1-.8-.4-1c-.3-.2-.6-.4-1-.4s-.8.1-1,.4-.4.7-.5,1.1l-1.5-.2c0-.4.1-.7.3-1,.2-.3.4-.6.6-.8.3-.2.6-.4.9-.5.3-.1.7-.2,1.1-.2s.8,0,1.1.2c.4.1.7.3.9.5.3.2.5.5.7.8.2.3.2.7.2,1.1s0,.6-.1.8c0,.2-.2.5-.3.7s-.3.4-.5.6-.4.4-.6.6l-2.6,2.5h4v1.4h-5.9v-1.4Z" class="st11"></path>
      <path d="M254.5,87.7c0,.7,0,1.4-.2,1.9-.1.6-.3,1.1-.6,1.5-.3.4-.6.7-1,.9s-.8.3-1.3.3-1-.1-1.3-.3c-.4-.2-.7-.5-1-.9-.3-.4-.5-.9-.6-1.5-.1-.6-.2-1.2-.2-1.9s0-1.4.2-2c.1-.6.3-1.1.6-1.5.3-.4.6-.7,1-.9.4-.2.8-.3,1.3-.3s1,.1,1.3.3c.4.2.7.5,1,.9.3.4.5.9.6,1.5.1.6.2,1.2.2,2ZM253,87.7c0-.3,0-.7,0-1.1,0-.4-.1-.8-.2-1.1s-.3-.6-.5-.9c-.2-.2-.5-.4-.8-.4s-.6.1-.8.4c-.2.2-.4.5-.5.9s-.2.7-.2,1.1c0,.4,0,.7,0,1.1s0,.7,0,1.1c0,.4.1.8.2,1.1.1.3.3.6.5.9.2.2.5.4.8.4s.6-.1.8-.4c.2-.2.4-.5.5-.9.1-.3.2-.7.2-1.1,0-.4,0-.7,0-1.1Z" class="st11"></path>
      <path d="M262.2,87.7c0,.7,0,1.4-.2,1.9-.1.6-.3,1.1-.6,1.5-.3.4-.6.7-1,.9s-.8.3-1.3.3-1-.1-1.3-.3c-.4-.2-.7-.5-1-.9-.3-.4-.5-.9-.6-1.5-.1-.6-.2-1.2-.2-1.9s0-1.4.2-2c.1-.6.3-1.1.6-1.5.3-.4.6-.7,1-.9.4-.2.8-.3,1.3-.3s1,.1,1.3.3c.4.2.7.5,1,.9.3.4.5.9.6,1.5.1.6.2,1.2.2,2ZM260.7,87.7c0-.3,0-.7,0-1.1,0-.4-.1-.8-.2-1.1s-.3-.6-.5-.9c-.2-.2-.5-.4-.8-.4s-.6.1-.8.4c-.2.2-.4.5-.5.9s-.2.7-.2,1.1c0,.4,0,.7,0,1.1s0,.7,0,1.1c0,.4.1.8.2,1.1.1.3.3.6.5.9.2.2.5.4.8.4s.6-.1.8-.4c.2-.2.4-.5.5-.9.1-.3.2-.7.2-1.1,0-.4,0-.7,0-1.1Z" class="st11"></path>
      <path d="M265,92.1l2.3-3.3h0c-.1,0-.3,0-.5.1-.2,0-.3,0-.5,0-.4,0-.8,0-1.1-.2s-.6-.3-.9-.6c-.3-.3-.5-.6-.6-.9-.1-.3-.2-.7-.2-1.1s0-.9.3-1.3.4-.7.7-1c.3-.3.6-.5,1-.6.4-.1.8-.2,1.3-.2s.9,0,1.3.2c.4.2.7.4,1,.6.3.3.5.6.7,1,.2.4.2.8.2,1.2s0,.5,0,.7c0,.2-.1.4-.2.6,0,.2-.2.4-.3.6-.1.2-.2.4-.4.7l-2.2,3.4h-1.8ZM268.5,86c0-.2,0-.5-.1-.7,0-.2-.2-.4-.3-.6-.2-.2-.3-.3-.5-.4-.2,0-.4-.1-.7-.1-.5,0-.9.2-1.2.5-.3.3-.5.8-.5,1.3s0,.5.1.7c0,.2.2.4.3.5.2.2.3.3.5.4.2,0,.4.1.7.1s.5,0,.7-.1.4-.2.6-.4.3-.3.4-.6c0-.2.1-.5.1-.7Z" class="st11"></path>
    </g>
    <g>
      <path d="M140.5,94c-.7,0-1.2-.1-1.7-.3-.5-.2-1-.6-1.3-1-.3-.4-.5-.9-.6-1.4,0-.4-.1-.8-.1-1.2v-1.2c-.6-.3-1.1-.9-1.1-1.6v-1.2c0-.7.4-1.3,1.1-1.6h0c0-1.1.8-1.9,1.8-1.9h1.5c1,0,1.8.8,1.8,1.8h0c.9.1,1.5.9,1.5,1.7v1.2c0,.9-.7,1.6-1.5,1.7v.2c.2,0,.4.1.6.2.5.3.8.8.8,1.4v1.2c0,.8-.4,1.4-1.1,1.7-.2,0-.5.2-.8.2-.3,0-.5,0-.8,0Z"></path>
      <path d="M146.7,93.9c-.5,0-1-.2-1.3-.5-.3.3-.8.5-1.3.5h-1.5c-1,0-1.8-.8-1.8-1.8v-9.5c0-1,.8-1.8,1.8-1.8h1.5c1,0,1.8.8,1.8,1.8v1.5s0,0,0,0c.7,0,1.3.1,1.8.4.5.2.9.6,1.3,1,.3.4.6.9.7,1.4.1.5.2.9.2,1.4v3.8c0,1-.8,1.8-1.8,1.8h-1.5Z"></path>
      <path d="M152.8,94.1c-.7,0-1.3-.1-1.9-.3-.6-.2-1.1-.6-1.6-1-.5-.4-.8-1-1.1-1.6-.3-.6-.4-1.3-.4-2s.1-1.4.4-2c.3-.6.6-1.2,1.1-1.6.5-.4,1-.8,1.6-1,.6-.2,1.2-.4,1.9-.4s1.2.1,1.8.3c.6.2,1.1.6,1.6,1,.4.5.8,1,1,1.6.2.6.3,1.3.3,2v.2c0,.1,0,.3,0,.4,0,.3-.1.6-.3.8.1.5,0,1.1-.3,1.5-.9,1.3-2.3,1.9-4,1.9Z"></path>
      <path d="M163.2,94.1c-.7,0-1.3-.1-1.9-.4-.6-.2-1.2-.6-1.6-1-.5-.4-.8-1-1.1-1.6-.3-.6-.4-1.3-.4-2s.1-1.4.4-2c.3-.6.6-1.1,1.1-1.6.5-.4,1-.8,1.6-1,.6-.2,1.2-.3,1.9-.3s1.3.1,1.9.3c.6.2,1.2.6,1.6,1,.5.4.8,1,1.1,1.6.3.6.4,1.3.4,2s-.1,1.4-.4,2c-.3.6-.6,1.1-1.1,1.6-.5.4-1,.8-1.6,1-.6.2-1.3.4-1.9.4ZM163.2,88.9"></path>
      <path d="M168,93.9c-1,0-1.8-.8-1.8-1.8v-6c0-1,.8-1.8,1.8-1.8h1.4c.2,0,.3,0,.5,0,.4-.2.9-.2,1.3-.2s.2,0,.3,0c.2,0,.4,0,.6.1.7.2,1.2.9,1.2,1.7v1.4c0,.5-.2,1-.7,1.4-.3.2-.7.4-1.1.4s-.2,0-.3,0v3.1c0,1-.8,1.8-1.7,1.8h-1.5Z"></path>
      <path d="M172.6,93.9c-1,0-1.8-.8-1.8-1.8v-6c0-.3,0-.5.2-.7-.2-.4-.4-.9-.4-1.3,0-.7.3-1.4.8-1.9.5-.5,1.2-.8,1.9-.8s1.4.2,1.9.7c.5.5.9,1.2.9,1.9s-.1.9-.4,1.3c0,.2.1.5.1.7v6c0,1-.8,1.8-1.8,1.8h-1.5Z"></path>
      <path d="M178.7,96.9c-.3,0-.7,0-1,0-.4,0-.7-.1-1.1-.2-.4-.1-.7-.3-1-.4-.4-.2-.7-.4-1-.6-.7-.6-.8-1.6-.3-2.4l.6-.9c-.3-.4-.6-.8-.7-1.3-.2-.6-.3-1.2-.3-1.8s.1-1.2.3-1.8c.2-.6.5-1.1.9-1.6.4-.5.9-.8,1.5-1.1.6-.3,1.3-.4,2-.4s1.1,0,1.5.3c.2,0,.4,0,.6,0h1.4c1,0,1.8.8,1.8,1.8v5.5c0,.7,0,1.4-.3,2-.2.7-.5,1.3-1,1.8-.5.5-1,.9-1.7,1.2-.6.2-1.4.4-2.2.4ZM178.9,89.1s0,0,0,.1c0,0,0,0,0-.1s0,0,0-.1c0,0,0,0,0,.1ZM178.8,88.9"></path>
      <path d="M183.9,93.9c-1,0-1.8-.8-1.8-1.8v-6c0-.3,0-.5.2-.7-.2-.4-.4-.9-.4-1.3,0-.7.3-1.4.8-1.9.5-.5,1.2-.8,1.9-.8s1.4.2,1.9.7c.5.5.9,1.2.9,1.9s-.1.9-.4,1.3c0,.2.1.5.1.7v6c0,1-.8,1.8-1.8,1.8h-1.5Z"></path>
      <path d="M191.3,93.9c-.5,0-1-.2-1.3-.5-.3.3-.8.5-1.3.5h-1.5c-1,0-1.8-.8-1.8-1.8v-6c0-1,.8-1.8,1.8-1.8h1.4c.2,0,.3,0,.5,0,.4-.2.9-.2,1.4-.2s1.3.1,1.8.4c.5.2.9.6,1.3,1,.3.4.6.9.7,1.4.1.4.2.9.2,1.4v3.8c0,1-.8,1.8-1.8,1.8h-1.5Z"></path>
      <path d="M196.4,94c-.4,0-.8,0-1.2-.1-.5-.1-.9-.3-1.3-.6-.4-.3-.8-.7-1.1-1.1-.3-.5-.5-1.1-.5-1.8,0-1.1.5-1.9.9-2.3h-.1c-.6-.8-.5-1.9.1-2.5.5-.5,1.1-.8,1.8-1.1.6-.2,1.3-.3,2-.3s1.4.1,2,.4c.6.3,1.1.6,1.5,1.1.4.4.6.9.8,1.5.1.4.2.9.2,1.4v3.7c0,1-.8,1.8-1.8,1.8h-1.4c-.2,0-.3,0-.5,0-.4.1-.9.2-1.4.2Z"></path>
      <rect ry="1.8" rx="1.8" height="13" width="5" y="80.9" x="199.8"></rect>
      <path d="M209.8,94.1c-.7,0-1.4-.1-2-.4-.7-.3-1.3-.7-1.8-1.2-.7-.7-.6-1.8,0-2.5l.3-.3c0-.1-.1-.2-.2-.3-.2-.4-.3-1-.3-1.5s.1-1.2.4-1.7c.3-.5.6-.9,1.1-1.2.4-.3.8-.5,1.3-.6.4-.1.9-.2,1.3-.2.6,0,1.3.1,1.9.3.7.3,1.3.7,1.8,1.3.6.7.5,1.8-.2,2.4h-.1c.1.2.2.4.3.5.3.5.4,1,.4,1.6s-.1,1.3-.4,1.8c-.3.5-.6.9-1.1,1.2-.4.3-.9.5-1.4.6-.4.1-.9.2-1.3.2Z"></path>
      <path d="M213.6,93.9c-1,0-1.7-.8-1.7-1.8v-6c0-.3,0-.5.2-.7-.2-.4-.4-.9-.4-1.3,0-.7.3-1.4.8-1.9.5-.5,1.2-.8,1.9-.8s1.4.2,1.9.7c.5.5.9,1.2.9,1.9s-.1.9-.4,1.3c0,.2.1.5.1.7v6c0,1-.8,1.8-1.8,1.8h-1.5Z"></path>
      <path d="M221,93.9c-.5,0-1-.2-1.3-.5-.3.3-.8.5-1.3.5h-1.5c-1,0-1.8-.8-1.8-1.8v-6c0-1,.8-1.8,1.8-1.8h1.4c.2,0,.3,0,.5,0,.4-.2.9-.2,1.4-.2s1.3.1,1.8.4c.5.2.9.6,1.3,1,.3.4.6.9.7,1.4.1.4.2.9.2,1.4v3.8c0,1-.8,1.8-1.8,1.8h-1.5Z"></path>
      <path d="M227.2,94.1c-.6,0-1.3-.1-1.9-.3-.6-.2-1.2-.6-1.6-1-.5-.4-.8-1-1.1-1.6-.3-.6-.4-1.3-.4-2s.1-1.4.4-2c.3-.6.6-1.1,1.1-1.6.5-.4,1-.8,1.6-1,.6-.2,1.2-.3,1.9-.3s1.3.1,1.9.4c.7.3,1.2.7,1.7,1.2.6.7.5,1.8-.2,2.4,0,0-1.1.9-1.1.9,0,0,.1.1.2.2l.9,1c.7.7.7,1.7,0,2.4-.4.5-1,.8-1.6,1.1-.6.2-1.2.3-1.9.3ZM227.3,89.1s0,0,0,.1c0,0,0,0,0,0,0,0,0,0-.1,0,0,0,0,0,0,0Z"></path>
      <path d="M233.3,94.1c-.7,0-1.3-.1-1.9-.3-.6-.2-1.1-.6-1.6-1-.5-.4-.8-1-1.1-1.6-.3-.6-.4-1.3-.4-2s.1-1.4.4-2c.3-.6.6-1.2,1.1-1.6.5-.4,1-.8,1.6-1,.6-.2,1.2-.4,1.9-.4s1.2.1,1.8.3c.6.2,1.1.6,1.6,1,.4.5.8,1,1,1.6.2.6.3,1.3.3,2v.2c0,.1,0,.3,0,.4,0,.3-.1.6-.3.8.1.5,0,1.1-.3,1.5-.9,1.3-2.3,1.9-4,1.9Z"></path>
      <path d="M240.8,93.9c-1,0-1.8-.8-1.8-1.8v-1.4c0-.5.2-.9.5-1.2l2.1-2-1.2-.2c-.9-.1-1.6-1-1.5-1.9,0-.6.2-1.1.5-1.7.3-.5.6-.9,1-1.3.4-.4.9-.7,1.4-.9.5-.2,1.1-.3,1.7-.3s1.1,0,1.6.2c.6.2,1.1.4,1.5.8.5.4.8.8,1.1,1.4.3.6.4,1.2.4,1.9s0,.9-.2,1.3c-.1.4-.3.8-.5,1.1-.2.3-.4.6-.6.9,0,0,0,.1-.1.2.8.1,1.5.9,1.5,1.7v1.4c0,1-.8,1.8-1.8,1.8h-5.9Z"></path>
      <path d="M251.4,94.1c-.8,0-1.5-.2-2.2-.5-.6-.4-1.2-.9-1.6-1.5-.4-.6-.7-1.3-.9-2-.2-.7-.3-1.5-.3-2.4s0-1.7.3-2.4c.2-.8.5-1.5.9-2,.4-.6,1-1.1,1.6-1.5.7-.4,1.4-.5,2.2-.5s1.5.2,2.2.5c.6.4,1.2.9,1.6,1.5.4.6.7,1.3.8,2,.2.7.3,1.5.3,2.4s0,1.6-.3,2.4c-.2.8-.5,1.4-.8,2-.4.6-1,1.1-1.6,1.5-.7.4-1.4.5-2.2.5Z"></path>
      <path d="M259.1,94.1c-.8,0-1.5-.2-2.2-.5-.6-.4-1.2-.9-1.6-1.5-.4-.6-.7-1.3-.9-2-.2-.7-.3-1.5-.3-2.4s0-1.7.3-2.4c.2-.8.5-1.5.9-2,.4-.6,1-1.1,1.6-1.5.7-.4,1.4-.5,2.2-.5s1.5.2,2.2.5c.6.4,1.2.9,1.6,1.5.4.6.7,1.3.8,2,.2.7.3,1.5.3,2.4s0,1.6-.3,2.4c-.2.8-.5,1.4-.8,2-.4.6-1,1.1-1.6,1.5-.7.4-1.4.5-2.2.5Z"></path>
      <path d="M265,93.9c-.7,0-1.2-.4-1.5-.9-.3-.6-.3-1.3.1-1.8l.6-.9c-.4-.2-.8-.5-1.1-.8-.4-.4-.8-.9-1-1.5-.2-.6-.4-1.2-.4-1.8s.1-1.4.4-2c.3-.6.6-1.1,1.1-1.6.5-.4,1-.8,1.6-1,.6-.2,1.2-.3,1.9-.3s1.3.1,1.9.4c.6.2,1.1.6,1.6,1,.5.4.8,1,1.1,1.5.3.6.4,1.2.4,1.9s0,.7,0,1c0,.3-.2.6-.3.9-.1.3-.2.6-.4.8-.1.2-.3.5-.4.8l-2.2,3.5c-.3.5-.9.8-1.5.8h-1.8Z"></path>
    </g>
    <g>
      <path d="M137.4,87.3v-1.2h1.1v-1.7h1.5v1.7h1.5v1.2h-1.5v2.8c0,.3,0,.5.1.7,0,.2.3.3.6.3s.2,0,.3,0c.1,0,.2,0,.3,0v1.2c0,0-.2,0-.4.1-.2,0-.4,0-.5,0-.4,0-.7,0-1-.2-.3-.1-.5-.3-.6-.5-.1-.2-.2-.4-.3-.7,0-.3,0-.5,0-.8v-2.8h-1.1Z" class="st11"></path>
      <path d="M145.9,85.9c.4,0,.7,0,1,.2.3.1.5.3.7.5.2.2.3.5.4.8,0,.3.1.6.1.9v3.8h-1.5v-3.3c0-.2,0-.4,0-.5,0-.2,0-.4-.2-.5,0-.2-.2-.3-.3-.4-.1-.1-.3-.2-.6-.2s-.5,0-.6.1c-.2,0-.3.2-.4.4s-.2.3-.3.5c0,.2,0,.4,0,.6v3.3h-1.5v-9.5h1.5v4.3h0c0-.1.1-.2.3-.4.1-.1.2-.2.4-.3.2,0,.3-.2.5-.2s.4,0,.6,0Z" class="st11"></path>
      <path d="M155.7,89.2v.2c0,0,0,.1,0,.2h-4.6c0,.2,0,.4.2.6,0,.2.2.3.4.5.2.1.3.2.5.3.2,0,.4.1.6.1.4,0,.7,0,1-.2.3-.1.5-.3.6-.6l1,.8c-.6.8-1.5,1.2-2.6,1.2s-.9,0-1.3-.2c-.4-.1-.7-.4-1-.6-.3-.3-.5-.6-.7-1-.2-.4-.2-.8-.2-1.3s0-.9.2-1.3c.2-.4.4-.7.7-1,.3-.3.6-.5,1-.7.4-.2.8-.2,1.3-.2s.8,0,1.2.2c.4.1.7.3.9.6.3.3.5.6.6,1,.1.4.2.9.2,1.4ZM154.2,88.5c0-.2,0-.4,0-.6s-.1-.3-.3-.5c-.1-.1-.3-.2-.4-.3-.2,0-.4-.1-.6-.1-.5,0-.8.1-1.2.4s-.5.6-.5,1.1h3.1Z" class="st11"></path>
      <path d="M159.9,89.1c0-.5,0-.9.3-1.3s.4-.7.7-1c.3-.3.6-.5,1-.6.4-.2.8-.2,1.3-.2s.9,0,1.3.2c.4.2.8.4,1,.6.3.3.5.6.7,1s.3.8.3,1.3,0,.9-.3,1.3c-.2.4-.4.7-.7,1-.3.3-.6.5-1,.7s-.8.2-1.3.2-.9,0-1.3-.2-.8-.4-1-.7c-.3-.3-.5-.6-.7-1-.2-.4-.3-.8-.3-1.3ZM161.5,89.1c0,.2,0,.5.1.7s.2.4.3.6c.1.2.3.3.5.5.2.1.5.2.8.2s.6,0,.8-.2c.2-.1.4-.3.5-.5s.2-.4.3-.6.1-.5.1-.7,0-.5-.1-.7c0-.2-.2-.4-.3-.6s-.3-.3-.5-.4c-.2-.1-.5-.2-.8-.2s-.6,0-.8.2c-.2.1-.4.3-.5.4-.1.2-.2.4-.3.6,0,.2-.1.5-.1.7Z" class="st11"></path>
      <path d="M168,86.1h1.4v1h0c.2-.4.4-.6.7-.9s.7-.3,1.1-.3.1,0,.2,0c0,0,.1,0,.2,0v1.4c-.1,0-.2,0-.3,0,0,0-.1,0-.2,0-.3,0-.6,0-.8.2-.2.1-.4.3-.5.5-.1.2-.2.4-.2.5s0,.3,0,.4v3.2h-1.5v-6Z" class="st11"></path>
      <path d="M172.4,84.1c0-.2,0-.5.3-.6s.4-.3.7-.3.5,0,.7.3c.2.2.3.4.3.6s0,.5-.3.6c-.2.2-.4.3-.7.3s-.5,0-.7-.3-.3-.4-.3-.6ZM172.6,86.1h1.5v6h-1.5v-6Z" class="st11"></path>
      <path d="M182.1,86.1v5.5c0,.5,0,1-.2,1.5s-.3.8-.6,1.1c-.3.3-.6.5-1.1.7s-.9.3-1.5.3-.5,0-.8,0-.5-.1-.8-.2c-.3,0-.5-.2-.8-.3s-.5-.3-.7-.4l.9-1.2c.3.3.6.5,1,.6.4.1.7.2,1.1.2s.7,0,.9-.2c.2-.1.4-.2.6-.4.1-.2.3-.4.3-.7,0-.3,0-.5,0-.8v-.4h0c-.2.3-.5.5-.8.7-.3.2-.7.2-1.1.2s-.9,0-1.2-.3c-.4-.2-.7-.4-.9-.7s-.5-.6-.6-1c-.1-.4-.2-.8-.2-1.2s0-.8.2-1.2c.1-.4.3-.7.6-1,.3-.3.6-.5.9-.7.4-.2.8-.3,1.2-.3s.8,0,1.2.3c.4.2.7.4.9.8h0v-.9h1.4ZM178.8,87.2c-.3,0-.5,0-.7.2-.2,0-.4.2-.5.4-.1.2-.3.4-.3.6,0,.2-.1.5-.1.8s0,.5.1.7c0,.2.2.4.3.6.1.2.3.3.5.4s.5.2.7.2.5,0,.7-.2c.2-.1.4-.2.6-.4.2-.2.3-.4.4-.6,0-.2.1-.5.1-.7s0-.5-.1-.7c0-.2-.2-.4-.4-.6-.2-.2-.3-.3-.6-.4-.2-.1-.5-.2-.7-.2Z" class="st11"></path>
      <path d="M183.7,84.1c0-.2,0-.5.3-.6s.4-.3.7-.3.5,0,.7.3c.2.2.3.4.3.6s0,.5-.3.6c-.2.2-.4.3-.7.3s-.5,0-.7-.3-.3-.4-.3-.6ZM183.9,86.1h1.5v6h-1.5v-6Z" class="st11"></path>
      <path d="M187.2,86.1h1.4v1h0c.1-.3.4-.6.7-.8.3-.2.7-.3,1.2-.3s.7,0,1,.2c.3.1.5.3.7.5s.3.5.4.8c0,.3.1.6.1.9v3.8h-1.5v-3.3c0-.2,0-.4,0-.6,0-.2,0-.4-.2-.5,0-.2-.2-.3-.3-.4-.1-.1-.3-.2-.6-.2s-.5,0-.6.1c-.2,0-.3.2-.4.4-.1.2-.2.3-.3.5,0,.2,0,.4,0,.6v3.3h-1.5v-6Z" class="st11"></path>
      <path d="M198.3,91.4h0c-.2.3-.4.5-.7.7-.3.2-.7.3-1.1.3s-.5,0-.8,0-.5-.2-.7-.3c-.2-.1-.4-.3-.6-.6-.1-.2-.2-.5-.2-.9s.1-.8.4-1.1.6-.5,1-.6c.4-.1.8-.2,1.3-.3.5,0,1,0,1.4,0v-.2c0-.4-.1-.7-.4-.8s-.6-.3-1-.3-.6,0-.9.2c-.3.1-.5.3-.7.5l-.8-.9c.3-.3.7-.6,1.2-.7.4-.2.9-.2,1.4-.2s1,0,1.3.2c.3.2.6.3.8.6.2.2.3.5.4.8s.1.6.1.9v3.7h-1.4v-.8ZM198.3,89.4h-.3c-.2,0-.5,0-.8,0s-.5,0-.7.1-.4.2-.6.3c-.2.1-.2.3-.2.5s0,.3,0,.4c0,0,.1.2.2.2.1,0,.2.1.3.1.1,0,.3,0,.4,0,.5,0,.9-.1,1.2-.4.3-.3.4-.7.4-1.1v-.2Z" class="st11"></path>
      <path d="M201.5,82.6h1.5v9.5h-1.5v-9.5Z" class="st11"></path>
      <path d="M211.3,87.7c-.1-.2-.3-.3-.6-.5-.2-.1-.5-.2-.8-.2s-.5,0-.7.2-.3.3-.3.5.1.4.3.5c.2,0,.5.2,1,.3.2,0,.5.1.7.2s.4.2.6.3c.2.1.3.3.5.5.1.2.2.5.2.7s0,.7-.2.9-.3.5-.6.6-.5.3-.8.3c-.3,0-.6.1-1,.1-.5,0-.9,0-1.4-.3s-.8-.4-1.1-.7l1-.9c.2.2.4.4.7.5s.6.2.9.2.2,0,.3,0c.1,0,.2,0,.3-.1s.2-.1.2-.2c0,0,0-.2,0-.3,0-.3-.1-.4-.3-.5-.2-.1-.6-.2-1-.3-.2,0-.4-.1-.7-.2-.2,0-.4-.2-.6-.3-.2-.1-.3-.3-.4-.5-.1-.2-.2-.4-.2-.7s0-.6.2-.9c.1-.2.3-.4.5-.6s.5-.3.8-.3.6-.1.9-.1c.4,0,.9,0,1.3.2.4.2.7.4,1,.7l-1,.9Z" class="st11"></path>
      <path d="M213.4,84.1c0-.2,0-.5.3-.6s.4-.3.7-.3.5,0,.7.3c.2.2.3.4.3.6s0,.5-.3.6c-.2.2-.4.3-.7.3s-.5,0-.7-.3-.3-.4-.3-.6ZM213.6,86.1h1.5v6h-1.5v-6Z" class="st11"></path>
      <path d="M217,86.1h1.4v1h0c.1-.3.4-.6.7-.8.3-.2.7-.3,1.2-.3s.7,0,1,.2c.3.1.5.3.7.5s.3.5.4.8c0,.3.1.6.1.9v3.8h-1.5v-3.3c0-.2,0-.4,0-.6,0-.2,0-.4-.2-.5,0-.2-.2-.3-.3-.4-.1-.1-.3-.2-.6-.2s-.5,0-.6.1c-.2,0-.3.2-.4.4-.1.2-.2.3-.3.5,0,.2,0,.4,0,.6v3.3h-1.5v-6Z" class="st11"></path>
      <path d="M228.4,87.8c-.1-.2-.3-.3-.5-.4-.2-.1-.5-.2-.7-.2s-.5,0-.7.2c-.2.1-.4.3-.5.4s-.2.4-.3.6c0,.2-.1.5-.1.7s0,.5.1.7.2.4.3.6.3.3.5.4.5.2.7.2.5,0,.7-.1c.2,0,.4-.2.6-.4l.9,1c-.3.3-.6.5-1,.6s-.8.2-1.3.2-.9,0-1.3-.2c-.4-.1-.7-.4-1-.6-.3-.3-.5-.6-.7-1-.2-.4-.3-.8-.3-1.3s0-.9.3-1.3c.2-.4.4-.7.7-1,.3-.3.6-.5,1-.6.4-.2.8-.2,1.3-.2s.9,0,1.3.3.7.4,1,.7l-1,.9Z" class="st11"></path>
      <path d="M236.2,89.2v.2c0,0,0,.1,0,.2h-4.6c0,.2,0,.4.2.6,0,.2.2.3.4.5.2.1.3.2.5.3.2,0,.4.1.6.1.4,0,.7,0,1-.2.3-.1.5-.3.6-.6l1,.8c-.6.8-1.5,1.2-2.6,1.2s-.9,0-1.3-.2c-.4-.1-.7-.4-1-.6-.3-.3-.5-.6-.7-1-.2-.4-.2-.8-.2-1.3s0-.9.2-1.3c.2-.4.4-.7.7-1,.3-.3.6-.5,1-.7.4-.2.8-.2,1.3-.2s.8,0,1.2.2c.4.1.7.3.9.6.3.3.5.6.6,1,.1.4.2.9.2,1.4ZM234.7,88.5c0-.2,0-.4,0-.6s-.1-.3-.3-.5c-.1-.1-.3-.2-.4-.3-.2,0-.4-.1-.6-.1-.5,0-.8.1-1.2.4s-.5.6-.5,1.1h3.1Z" class="st11"></path>
      <path d="M240.8,90.8l3.4-3.4c.3-.3.5-.5.7-.8.2-.3.2-.6.2-.9s-.1-.8-.4-1c-.3-.2-.6-.4-1-.4s-.8.1-1,.4-.4.7-.5,1.1l-1.5-.2c0-.4.1-.7.3-1,.2-.3.4-.6.6-.8.3-.2.6-.4.9-.5.3-.1.7-.2,1.1-.2s.8,0,1.1.2c.4.1.7.3.9.5.3.2.5.5.7.8.2.3.2.7.2,1.1s0,.6-.1.8c0,.2-.2.5-.3.7s-.3.4-.5.6-.4.4-.6.6l-2.6,2.5h4v1.4h-5.9v-1.4Z" class="st11"></path>
      <path d="M254.5,87.7c0,.7,0,1.4-.2,1.9-.1.6-.3,1.1-.6,1.5-.3.4-.6.7-1,.9s-.8.3-1.3.3-1-.1-1.3-.3c-.4-.2-.7-.5-1-.9-.3-.4-.5-.9-.6-1.5-.1-.6-.2-1.2-.2-1.9s0-1.4.2-2c.1-.6.3-1.1.6-1.5.3-.4.6-.7,1-.9.4-.2.8-.3,1.3-.3s1,.1,1.3.3c.4.2.7.5,1,.9.3.4.5.9.6,1.5.1.6.2,1.2.2,2ZM253,87.7c0-.3,0-.7,0-1.1,0-.4-.1-.8-.2-1.1s-.3-.6-.5-.9c-.2-.2-.5-.4-.8-.4s-.6.1-.8.4c-.2.2-.4.5-.5.9s-.2.7-.2,1.1c0,.4,0,.7,0,1.1s0,.7,0,1.1c0,.4.1.8.2,1.1.1.3.3.6.5.9.2.2.5.4.8.4s.6-.1.8-.4c.2-.2.4-.5.5-.9.1-.3.2-.7.2-1.1,0-.4,0-.7,0-1.1Z" class="st11"></path>
      <path d="M262.2,87.7c0,.7,0,1.4-.2,1.9-.1.6-.3,1.1-.6,1.5-.3.4-.6.7-1,.9s-.8.3-1.3.3-1-.1-1.3-.3c-.4-.2-.7-.5-1-.9-.3-.4-.5-.9-.6-1.5-.1-.6-.2-1.2-.2-1.9s0-1.4.2-2c.1-.6.3-1.1.6-1.5.3-.4.6-.7,1-.9.4-.2.8-.3,1.3-.3s1,.1,1.3.3c.4.2.7.5,1,.9.3.4.5.9.6,1.5.1.6.2,1.2.2,2ZM260.7,87.7c0-.3,0-.7,0-1.1,0-.4-.1-.8-.2-1.1s-.3-.6-.5-.9c-.2-.2-.5-.4-.8-.4s-.6.1-.8.4c-.2.2-.4.5-.5.9s-.2.7-.2,1.1c0,.4,0,.7,0,1.1s0,.7,0,1.1c0,.4.1.8.2,1.1.1.3.3.6.5.9.2.2.5.4.8.4s.6-.1.8-.4c.2-.2.4-.5.5-.9.1-.3.2-.7.2-1.1,0-.4,0-.7,0-1.1Z" class="st11"></path>
      <path d="M265,92.1l2.3-3.3h0c-.1,0-.3,0-.5.1-.2,0-.3,0-.5,0-.4,0-.8,0-1.1-.2s-.6-.3-.9-.6c-.3-.3-.5-.6-.6-.9-.1-.3-.2-.7-.2-1.1s0-.9.3-1.3.4-.7.7-1c.3-.3.6-.5,1-.6.4-.1.8-.2,1.3-.2s.9,0,1.3.2c.4.2.7.4,1,.6.3.3.5.6.7,1,.2.4.2.8.2,1.2s0,.5,0,.7c0,.2-.1.4-.2.6,0,.2-.2.4-.3.6-.1.2-.2.4-.4.7l-2.2,3.4h-1.8ZM268.5,86c0-.2,0-.5-.1-.7,0-.2-.2-.4-.3-.6-.2-.2-.3-.3-.5-.4-.2,0-.4-.1-.7-.1-.5,0-.9.2-1.2.5-.3.3-.5.8-.5,1.3s0,.5.1.7c0,.2.2.4.3.5.2.2.3.3.5.4.2,0,.4.1.7.1s.5,0,.7-.1.4-.2.6-.4.3-.3.4-.6c0-.2.1-.5.1-.7Z" class="st11"></path>
    </g>
  </g>
  <g>
    <path d="M215.7,46.9c-.5,0-1-.4-1.1-.9,0,0-.1,0-.2,0,0,0-.2,0-.2,0,0,.5-.5,1-1.1,1h-.7c-.5,0-.9-.3-1-.8-.1.5-.5.8-1,.8h-.8c-.6,0-1.1-.5-1.1-1.1v-2.2h-.1c-.6,0-1.1-.5-1.1-1.1v-.7c0-.6.5-1.1,1.1-1.1h3.2c.2,0,.3,0,.4,0,.1,0,.3,0,.4,0h.8c.4,0,.7.2.9.5l.3.5.3-.5c.2-.3.5-.5.9-.5h.8c.6,0,1.1.5,1.1,1.1v4c0,.6-.5,1.1-1.1,1.1h-.7Z"></path>
    <path d="M209.6,42.5h-1.2v-.7h3.2v.7h-1.2v3.3h-.8v-3.3ZM212.5,41.8h.8l1.2,1.9,1.2-1.9h.8v4h-.7v-2.8l-1.2,1.9h0l-1.2-1.9v2.8h-.7v-4Z" class="st11"></path>
  </g>
</svg>